<svg xmlns="http://www.w3.org/2000/svg" width="400" height="400" viewBox="0 0 400 400" version="1.1"><path d="M 194.840 5.478 C 187.538 12.274, 178.058 16.786, 159 22.535 C 125.725 32.573, 118.049 35.202, 109.744 39.404 C 98.803 44.941, 90.208 51.695, 83.919 59.698 C 80.770 63.704, 78.233 66, 76.955 66 C 74.572 66, 64.870 70.813, 60.210 74.306 C 54.719 78.423, 47.171 88.712, 42.564 98.362 C 38.270 107.356, 32.742 123.840, 27.425 143.500 C 23.008 159.834, 22.330 162.086, 18.995 171.500 C 14.711 183.592, 10.506 191.285, 4.724 197.612 L -0.090 202.879 5.031 209.189 C 10.490 215.916, 17.371 229.338, 20.825 240 C 23.906 249.507, 25.996 256.409, 26.454 258.586 C 27.690 264.459, 32.286 280.757, 35.031 289 C 43.856 315.498, 56.179 331.530, 75 340.998 C 78.575 342.796, 84.099 346.669, 87.274 349.604 C 98.181 359.682, 112.768 366.861, 135.500 373.339 C 175.083 384.617, 184.036 388.061, 194.785 396.144 L 200.071 400.118 204.785 396.734 C 213.980 390.134, 230.060 382.504, 240 380.026 C 260.022 375.034, 275.994 370.718, 282.553 368.529 C 296.841 363.758, 310.554 354.902, 318.806 345.115 C 321.663 341.727, 324.042 340.010, 327.151 339.093 C 347.663 333.044, 361.389 312.533, 370.477 274.350 C 371.898 268.382, 374.235 258.550, 375.671 252.500 C 378.995 238.493, 383.412 225.123, 387.193 217.624 C 390.360 211.344, 398.666 201.676, 400.122 202.575 C 400.605 202.874, 401 202.679, 401 202.142 C 401 201.606, 400.622 201.017, 400.159 200.833 C 397.135 199.635, 387.153 182.891, 383.444 172.798 C 381.302 166.969, 373.885 143.023, 373.392 140.347 C 372.393 134.917, 364.375 112.571, 360.352 104 C 352.521 87.321, 340.537 74.298, 328.089 68.943 C 325.002 67.615, 323.044 65.997, 322.191 64.069 C 318.041 54.694, 301.547 42.101, 286.309 36.674 C 279.603 34.286, 267.668 30.325, 262 28.606 C 231.466 19.347, 215.402 12.517, 205.975 4.787 L 200.449 0.256 194.840 5.478 M 195.130 7.127 C 187.243 14.420, 177.173 19.096, 157 24.831 C 124.638 34.033, 113.529 38.220, 101.915 45.594 C 94.193 50.497, 88.415 55.785, 84.114 61.885 C 81.534 65.543, 79.960 66.627, 74.617 68.425 C 53.405 75.564, 42.528 93.679, 28.637 145 C 26.180 154.075, 23.191 164.425, 21.994 168 C 18.390 178.761, 10.445 194.221, 6.125 198.882 L 2.063 203.265 6.023 207.764 C 9.773 212.023, 18.160 227.792, 21.309 236.500 C 23.642 242.951, 26.645 252.878, 29.023 262 C 35.011 284.965, 39.018 296.985, 44.023 307 C 51.631 322.220, 61.746 332.746, 75 339.233 C 78.575 340.982, 83.975 344.648, 87 347.378 C 100.941 359.960, 114.481 366.226, 146.500 374.911 C 172.897 382.070, 186.097 387.375, 195.631 394.652 L 199.943 397.944 206.138 393.829 C 217.888 386.024, 231.676 380.498, 253 375.045 C 271.273 370.372, 273.738 369.691, 280.801 367.370 C 296.400 362.244, 310.052 353.598, 317.500 344.129 C 320.433 340.401, 322.563 338.744, 325.483 337.921 C 342.146 333.222, 353.952 319.919, 362.491 296.222 C 365.022 289.197, 368.716 276.160, 369.638 271 C 369.883 269.625, 370.707 266.025, 371.468 263 C 372.229 259.975, 373.853 253.450, 375.077 248.500 C 377.766 237.628, 381.079 227.168, 383.869 220.743 C 386.249 215.263, 392.788 205.370, 395.844 202.626 L 397.931 200.752 394.586 196.626 C 390.331 191.376, 385.876 183.291, 382.669 175 C 379.636 167.155, 370.314 137.637, 369.572 133.528 C 368.985 130.272, 363.459 114.852, 360.126 107.168 C 353.548 92.001, 345.912 82.138, 335.161 74.920 C 331.125 72.211, 326.756 69.726, 325.451 69.398 C 323.947 69.021, 322.005 66.899, 320.139 63.593 C 316.048 56.343, 307.709 49.084, 297.319 43.727 C 287.267 38.544, 282.136 36.600, 262.500 30.537 C 226.376 19.382, 212.986 13.508, 203 4.434 L 200.500 2.162 195.130 7.127 M 180 40.529 C 159.037 43.048, 137.003 49.976, 119.285 59.620 C 76.460 82.928, 46.087 123.301, 35.866 170.500 C 32.977 183.841, 32.729 218.154, 35.437 230 C 36.379 234.125, 37.359 238.556, 37.613 239.847 C 38.703 245.390, 44.430 261.153, 48.204 269 C 67.446 309.006, 103.407 340.631, 145.503 354.570 C 165.427 361.167, 178.058 363.210, 199.500 363.306 C 224.550 363.418, 232.705 362.189, 256 354.791 C 297.628 341.569, 333.422 311.014, 353.012 271.976 C 360.135 257.783, 363.039 249.289, 367.197 230.500 C 370.383 216.101, 370.360 187.224, 367.150 172.020 C 360.344 139.772, 346.864 114.178, 324.545 91.125 C 286.902 52.245, 234.668 33.961, 180 40.529 M 181 41.632 C 160.176 45.440, 155.679 46.530, 143 50.845 C 133.956 53.923, 113.596 64.161, 106 69.449 C 82.897 85.536, 63.022 107.888, 51.594 130.635 C 45.012 143.735, 39.259 160.223, 37.509 171 C 37.196 172.925, 36.430 177.200, 35.807 180.500 C 33.824 190.995, 34.375 214.923, 36.912 228.419 C 43.155 261.642, 57.198 288.148, 81.496 312.570 C 101.896 333.073, 123.740 346.338, 150.597 354.532 C 193.086 367.496, 241.303 363.440, 279 343.731 C 295.852 334.920, 307.970 326.082, 321.090 313.033 C 352.052 282.237, 368 244.320, 368 201.500 C 368 158.879, 351.985 120.834, 321.039 89.937 C 297.019 65.955, 268.963 51.003, 234.500 43.814 C 226.646 42.176, 220.101 41.669, 204 41.452 C 192.725 41.299, 182.375 41.380, 181 41.632 M 204.477 48.410 C 204.025 49.869, 202.142 69.435, 202.424 69.740 C 202.546 69.871, 204.076 70.265, 205.823 70.615 L 209 71.250 209 64.925 C 209 57.772, 209.495 57.882, 213.816 66 C 216.255 70.583, 217.245 71.551, 219.750 71.804 C 223.112 72.144, 223.168 71.964, 224.585 56.381 L 225.233 49.261 222.176 48.813 L 219.120 48.364 218.423 54.879 L 217.725 61.394 214.409 54.817 C 211.548 49.143, 210.663 48.178, 207.954 47.780 C 206.170 47.518, 204.669 47.790, 204.477 48.410 M 179.300 60.088 C 177.138 68.792, 176.627 72.303, 177.476 72.629 C 179.331 73.341, 184 71.200, 184 69.638 C 184 68.818, 185.361 68.012, 187.250 67.715 C 189.701 67.328, 190.884 67.688, 192.063 69.178 C 193.331 70.783, 194.211 70.999, 196.741 70.327 L 199.857 69.500 194.756 58.750 L 189.655 48 185.979 48 L 182.304 48 179.300 60.088 M 156.942 53.472 C 155.535 54.237, 153.820 56.100, 153.131 57.612 C 152.050 59.984, 152.141 60.713, 153.789 62.930 C 155.312 64.979, 156.792 65.601, 161.091 66 C 165.192 66.380, 166.562 66.920, 166.815 68.253 C 167.243 70.509, 164.277 71.654, 161.881 70.158 C 159.704 68.798, 157.040 68.688, 155.158 69.881 C 154.045 70.586, 154.040 71.092, 155.130 72.837 C 157.933 77.325, 164.374 77.606, 170.623 73.512 C 172.523 72.266, 173 71.081, 173 67.599 C 173 62.123, 171.451 60.785, 164.439 60.203 C 160.948 59.914, 159 59.298, 159 58.483 C 159 56.514, 161.778 55.921, 163.401 57.544 C 165.187 59.330, 170 57.883, 170 55.560 C 170 52.149, 161.789 50.835, 156.942 53.472 M 240.998 64.007 C 239.173 70.061, 237.865 75.180, 238.090 75.383 C 238.316 75.586, 239.487 76.055, 240.693 76.425 C 242.693 77.039, 243.071 76.477, 244.985 70.049 C 246.140 66.172, 247.349 63, 247.671 63 C 247.994 63, 247.949 66.541, 247.572 70.868 C 246.911 78.440, 246.970 78.759, 249.118 79.320 C 251.632 79.978, 252.611 78.995, 256.665 71.745 C 258.127 69.130, 259.482 67.149, 259.676 67.343 C 259.870 67.537, 259.091 70.733, 257.944 74.444 C 256.798 78.156, 256.032 81.365, 256.242 81.575 C 256.452 81.785, 257.680 82.079, 258.970 82.228 C 261.135 82.479, 261.565 81.676, 264.525 71.850 L 267.734 61.200 265.320 60.100 C 260.971 58.118, 259.335 58.803, 256 64 C 254.235 66.750, 252.567 69, 252.294 69 C 252.020 69, 251.954 66.038, 252.148 62.418 L 252.500 55.835 248.500 54.433 C 246.300 53.661, 244.458 53.023, 244.408 53.015 C 244.357 53.007, 242.822 57.953, 240.998 64.007 M 185.676 57.875 C 184.583 63.331, 184.909 63.979, 187.815 62.136 C 188.896 61.450, 188.883 60.700, 187.740 57.901 L 186.352 54.500 185.676 57.875 M 140.750 58.689 C 139.019 59.142, 138.360 62.027, 139.685 63.352 C 140.660 64.326, 142.874 71, 142.223 71 C 141.925 71, 139.298 69.201, 136.385 67.001 C 130.937 62.888, 130.814 62.871, 125.272 65.514 C 124.980 65.653, 132.763 86.096, 133.321 86.654 C 133.552 86.886, 134.931 86.533, 136.385 85.870 C 139.199 84.588, 139.202 84.025, 136.431 77.250 C 135.700 75.463, 135.311 74, 135.566 74 C 135.822 74, 138.427 75.591, 141.356 77.536 C 145.933 80.575, 147.055 80.930, 149.341 80.061 C 150.803 79.504, 152 78.485, 152 77.794 C 152 75.243, 144.625 58.004, 143.581 58.116 C 142.987 58.180, 141.713 58.438, 140.750 58.689 M 272.725 76.100 C 267.926 80.006, 264 83.554, 264 83.985 C 264 84.417, 265.177 85.541, 266.616 86.484 C 268.959 88.020, 269.389 88.039, 270.756 86.673 C 272.122 85.306, 272.578 85.367, 275.140 87.262 C 276.836 88.516, 278 90.307, 278 91.662 C 278 93.158, 278.974 94.452, 280.816 95.405 L 283.632 96.861 285.939 84.887 C 287.208 78.302, 288.079 72.797, 287.873 72.654 C 286.328 71.581, 282.010 69, 281.760 69 C 281.589 69, 277.524 72.195, 272.725 76.100 M 115.608 71.496 C 114.568 72.283, 113.275 73.075, 112.735 73.255 C 112.018 73.494, 119.948 89.185, 122.654 92.885 C 123.014 93.376, 129 90.918, 129 90.279 C 129 89.777, 117.895 69.977, 117.645 70.032 C 117.565 70.049, 116.649 70.708, 115.608 71.496 M 183.500 76.492 C 165.889 78.506, 153.566 82.174, 137.831 90.085 C 124.608 96.733, 115.278 103.569, 103.928 114.924 C 91.573 127.284, 86.647 134.227, 79.459 149.408 C 72.474 164.163, 69.785 173.935, 68.360 189.750 L 67.707 197 62.381 197 L 57.056 197 55.354 191.250 L 53.652 185.500 52.036 191 L 50.419 196.500 45.029 197 L 39.640 197.500 43.820 200.386 C 46.119 201.973, 48 203.548, 47.999 203.886 C 47.999 204.224, 47.082 206.914, 45.960 209.864 L 43.922 215.228 48.804 211.644 L 53.687 208.059 57.843 211.116 C 62.474 214.521, 63.041 213.735, 60.441 207.514 C 59.584 205.462, 59.022 203.685, 59.191 203.564 C 59.361 203.442, 61.117 202.141, 63.094 200.672 C 65.071 199.202, 66.916 198, 67.194 198 C 67.471 198, 67.993 202.613, 68.352 208.250 C 69.252 222.378, 69.716 224.865, 73.699 236.894 C 84.539 269.631, 106.578 294.740, 138.620 310.859 C 151.412 317.294, 168.111 322.469, 180.500 323.837 C 188.307 324.700, 210.775 324.689, 218.734 323.819 C 246.158 320.822, 274.441 306.724, 295.502 285.554 C 319.438 261.494, 331.101 233.915, 331.260 201 C 331.423 167.256, 319.555 138.808, 295.226 114.625 C 272.017 91.555, 244.974 79.084, 211.500 76.011 C 198.640 74.831, 197.924 74.843, 183.500 76.492 M 278.648 78.845 C 276.221 81.378, 276.094 81.833, 277.485 82.988 C 278.345 83.701, 279.178 84.108, 279.337 83.893 C 279.759 83.317, 281.852 76, 281.593 76 C 281.473 76, 280.147 77.280, 278.648 78.845 M 174 79.507 C 156.274 83.131, 143.733 87.806, 130.687 95.653 C 100.666 113.712, 80.821 140.350, 71.947 174.500 C 69.796 182.776, 69.488 213.545, 71.463 222.764 C 73.759 233.478, 77.390 243.896, 82.178 253.510 C 89.524 268.261, 89.500 268.270, 89.500 250.568 C 89.500 236.448, 89.678 234.908, 91.606 232.323 C 94.104 228.974, 97 228.055, 97 230.611 C 97 231.578, 97.947 234.326, 99.105 236.718 C 102.210 243.131, 106.660 245.090, 117.449 244.791 C 125.556 244.566, 126.056 244.680, 128.904 247.408 C 130.703 249.132, 132.375 252.183, 133.126 255.114 C 134.469 260.356, 135.806 261.233, 144.500 262.579 C 146.700 262.919, 148.857 263.417, 149.294 263.685 C 149.730 263.953, 148.716 261.943, 147.040 259.219 C 143.575 253.588, 137.092 247.334, 128.672 241.500 C 116.069 232.768, 106.392 225.120, 104.291 222.230 C 103.076 220.559, 101.790 217.011, 101.434 214.346 C 101.077 211.681, 100.642 209.259, 100.466 208.965 C 100.291 208.671, 99.651 203.913, 99.043 198.391 C 96.551 175.747, 102.548 152.600, 117.320 127.845 C 122.445 119.257, 123.789 117.788, 132.098 111.699 C 141.651 104.698, 144.064 103.948, 148.928 106.463 C 152.087 108.096, 153 109.800, 153 114.056 C 153 116.255, 153.715 117.319, 155.986 118.493 C 159.651 120.388, 160.617 123.774, 159.226 129.853 C 158.577 132.692, 158.523 135.109, 159.087 136.162 C 161.443 140.565, 159.705 147.128, 153.426 157.529 C 149.593 163.879, 149.153 165.281, 148.869 172.054 C 148.579 178.977, 148.770 179.832, 151.373 183.244 C 154.426 187.247, 158 197.410, 158 202.089 C 158 203.979, 158.514 205, 159.465 205 C 161.496 205, 167.272 210.243, 169.013 213.666 C 173.278 222.051, 174.645 223.490, 179.608 224.815 C 185.724 226.447, 192.846 230.948, 195.945 235.140 C 197.247 236.901, 199.358 241.303, 200.635 244.921 C 201.913 248.539, 202.967 250.568, 202.979 249.428 C 203.076 239.930, 212.387 228.771, 223.102 225.311 C 228.036 223.718, 229.958 222.519, 231.500 220.072 C 238.011 209.742, 239.924 207.351, 242.762 206 C 244.927 204.970, 246.107 203.560, 246.531 201.500 C 246.871 199.850, 247.399 197.623, 247.705 196.551 C 248.181 194.883, 247.799 194.992, 245.054 197.301 C 241.514 200.280, 234.590 201.232, 235.600 198.601 C 235.895 197.832, 235.656 196.905, 235.068 196.542 C 234.417 196.140, 234 196.881, 234 198.441 C 234 201.225, 233.075 201.675, 231.200 199.800 C 230.267 198.867, 230 199.227, 230 201.422 C 230 203.723, 230.258 204.031, 231.394 203.088 C 233.161 201.621, 243 200.398, 243 201.645 C 243 202.153, 241.603 203.394, 239.896 204.402 C 236.274 206.542, 229.268 206.087, 227.445 203.593 C 226.500 202.302, 226.151 202.603, 225.274 205.459 C 224.235 208.843, 224.245 208.857, 226.820 207.878 C 229.522 206.851, 237 207.621, 237 208.927 C 237 209.984, 232.338 211.988, 229.703 212.063 C 227.599 212.124, 227.612 212.171, 229.976 213.115 C 231.998 213.922, 232.181 214.274, 230.976 215.036 C 230.164 215.549, 228.011 215.976, 226.191 215.985 C 224.371 215.993, 223.131 216.403, 223.435 216.895 C 224.106 217.980, 221.698 219, 218.465 219 C 215.726 219, 211 217.042, 211 215.907 C 211 214.633, 214.967 213.775, 217.693 214.459 C 220.043 215.049, 220.115 214.972, 218.621 213.478 C 217.729 212.587, 217 211.189, 217 210.373 C 217 209.417, 216.121 209.888, 214.532 211.694 L 212.063 214.500 212.032 212.102 C 212.002 209.851, 211.858 209.913, 209.693 213.102 L 207.387 216.500 209.612 217.142 C 212.357 217.933, 216.926 221.188, 216.969 222.382 C 217.036 224.273, 208.648 222.103, 206.120 219.575 C 204.704 218.159, 204.098 217, 204.773 217 C 205.473 217, 206 215.695, 206 213.960 C 206 212.288, 206.892 209.172, 207.983 207.034 L 209.965 203.148 204.658 203.696 C 193.182 204.880, 181.676 198.089, 176.686 187.186 C 173.711 180.686, 173.705 169.327, 176.673 162.844 C 180.834 153.755, 192.198 146, 201.356 146 C 211.742 146, 222.327 153.043, 226.687 162.854 C 230.345 171.085, 230.635 175.804, 227.989 184.034 C 226.281 189.346, 225.998 191.398, 226.856 192.256 C 227.715 193.115, 228 192.695, 228 190.578 C 228 188.063, 228.181 187.905, 229.661 189.128 C 231.154 190.361, 231.268 190.216, 230.789 187.692 C 230.371 185.493, 230.577 185.008, 231.739 185.453 C 232.896 185.897, 233.084 185.470, 232.592 183.511 C 232.218 182.019, 232.390 181, 233.016 181 C 233.726 181, 233.695 180.298, 232.922 178.854 C 231.882 176.911, 231.985 176.763, 234.001 177.290 L 236.229 177.873 233.864 175.299 C 232.137 173.419, 231.857 172.599, 232.823 172.255 C 233.796 171.909, 233.552 171.152, 231.899 169.392 C 229.956 167.324, 229.886 167, 231.381 167 C 232.737 167, 232.504 166.455, 230.306 164.483 C 228.763 163.098, 227.950 162.027, 228.500 162.101 C 231.659 162.529, 232.212 161.764, 229.720 160.412 C 228.192 159.583, 227.206 158.476, 227.529 157.953 C 228.408 156.531, 233.718 156.803, 236.866 158.431 C 239.619 159.855, 239.631 159.847, 239.192 156.855 C 238.877 154.711, 238.443 154.157, 237.675 154.925 C 236.077 156.523, 226.706 156.245, 224.441 154.532 C 222.954 153.407, 222.851 153.051, 224 153.010 C 224.825 152.980, 223.486 152.043, 221.025 150.926 C 217.920 149.518, 216.950 148.649, 217.856 148.089 C 218.751 147.536, 218.192 147.088, 216.081 146.666 C 212.164 145.883, 212.109 144.128, 215.976 143.355 C 219.629 142.624, 219.364 142.623, 223.212 143.392 C 225.678 143.886, 226.110 144.290, 225.171 145.229 C 224.232 146.168, 224.686 146.785, 227.233 148.030 C 229.030 148.908, 230.417 150.072, 230.315 150.618 C 230.213 151.164, 231.451 152.109, 233.065 152.718 C 235.856 153.772, 235.999 153.695, 235.985 151.163 C 235.973 149.064, 235.761 148.818, 234.985 150 C 234.109 151.333, 233.891 151.333, 233.015 150 C 232.474 149.175, 232.024 147.657, 232.015 146.628 C 232.003 145.174, 231.699 145.005, 230.657 145.870 C 229.614 146.736, 229.055 146.415, 228.153 144.436 C 227.514 143.034, 226.566 142.150, 226.046 142.472 C 224.560 143.390, 223 139.535, 223 134.943 C 223 131.304, 222.800 130.921, 221.476 132.020 C 219.343 133.790, 218.880 132.904, 219.965 129.123 C 220.806 126.189, 220.589 125.599, 217.698 122.968 L 214.500 120.059 218.592 120.029 C 222.523 120.001, 222.735 119.833, 224.008 115.750 L 225.334 111.500 226.501 115.500 C 227.599 119.259, 227.936 119.530, 232.085 120 L 236.500 120.500 233.173 122.873 C 229.749 125.315, 229.679 125.756, 231.658 132.385 C 232.128 133.962, 231.630 133.820, 228.610 131.516 C 224.605 128.461, 224.372 128.560, 226.393 132.457 C 227.315 134.234, 227.966 134.695, 228.317 133.821 C 229.089 131.899, 230.956 134.790, 231.015 138 C 231.057 140.283, 231.155 140.338, 232.146 138.632 C 233.126 136.946, 233.407 137.141, 235.035 140.632 C 236.027 142.759, 236.875 143.938, 236.919 143.250 C 237.096 140.511, 238.951 142.223, 239.610 145.733 C 240.184 148.796, 240.443 149.110, 241.048 147.483 C 241.782 145.510, 241.789 145.510, 242.540 147.500 C 242.956 148.600, 243.904 151.017, 244.648 152.872 C 245.391 154.727, 246 157.566, 246 159.181 C 246 160.796, 246.418 161.860, 246.928 161.544 C 248.148 160.791, 249.220 164.262, 248.416 166.359 C 247.982 167.488, 248.322 168, 249.507 168 C 250.831 168, 251.118 168.633, 250.755 170.750 C 250.495 172.262, 249.944 174.293, 249.530 175.261 C 248.947 176.625, 249.145 176.881, 250.407 176.397 C 251.823 175.854, 251.894 176.149, 250.952 178.636 C 250.355 180.211, 248.884 182.549, 247.683 183.831 L 245.500 186.163 248.427 185.429 L 251.354 184.694 249.028 187.960 C 246.152 191.999, 240.488 194.650, 238.413 192.927 C 237.258 191.969, 237 192.225, 237 194.327 C 237 196.873, 237.034 196.884, 240.468 195.449 C 242.375 194.652, 244.842 194, 245.949 194 C 247.282 194, 248.182 193.123, 248.614 191.403 C 248.972 189.974, 250.790 186.808, 252.653 184.367 C 256.038 179.933, 256.040 179.922, 255.392 171.715 C 254.856 164.929, 254.177 162.543, 251.490 158 C 244.367 145.955, 242.969 140.894, 245.444 136.108 C 246.428 134.205, 246.534 132.918, 245.810 131.626 C 242.887 126.402, 244.522 119.852, 249.180 118.129 C 250.677 117.575, 251.339 116.302, 251.591 113.491 C 252.028 108.621, 254.605 105.997, 259.608 105.326 C 263.221 104.841, 264.173 105.310, 272.504 111.672 C 282.116 119.013, 285.078 122.778, 292.432 137 C 297.762 147.309, 300.364 153.965, 303.184 164.500 C 306.106 175.413, 306.299 199.466, 303.566 212 C 301.230 222.711, 299.574 224.568, 279.630 238.826 C 265.858 248.671, 260.043 254.071, 257.097 259.750 C 255.712 262.420, 256.214 262.487, 262.222 260.440 C 266.171 259.095, 266.886 258.421, 267.426 255.542 C 268.898 247.695, 275.036 243.830, 284.641 244.701 C 295.337 245.671, 300.361 242.733, 302.515 234.251 C 303.863 228.943, 304.616 228.597, 307.207 232.092 C 310.038 235.911, 311.149 244.572, 310.250 255.812 C 309.265 268.121, 309.906 267.914, 316.911 253.663 C 323.226 240.815, 325.523 234.097, 328.012 221.199 C 332.456 198.174, 329.288 173.255, 319.026 150.517 C 311.741 134.374, 295.490 114.712, 279.747 102.992 C 250.470 81.196, 209.856 72.177, 174 79.507 M 292.734 89.701 C 286.322 97.857, 286.055 98.404, 287.639 100.154 C 290.036 102.802, 291.131 102.452, 294.442 97.976 C 296.060 95.789, 297.666 94, 298.011 94 C 298.355 94, 298.227 97.181, 297.726 101.068 C 296.928 107.248, 297.037 108.384, 298.595 110.105 C 299.575 111.188, 300.901 111.945, 301.540 111.787 C 302.180 111.629, 305.693 107.908, 309.347 103.518 L 315.990 95.535 313.497 93.042 L 311.004 90.549 309.407 92.829 C 308.529 94.083, 306.720 96.322, 305.387 97.805 L 302.964 100.500 303.427 98 C 305.262 88.100, 305.180 85.821, 302.903 83.396 C 301.664 82.078, 300.392 81.022, 300.076 81.048 C 299.759 81.074, 296.455 84.968, 292.734 89.701 M 89.250 90.944 C 86.275 93.426, 86.382 94.755, 90.500 106.429 C 92.425 111.886, 94 116.575, 94 116.850 C 94 117.124, 95.149 116.270, 96.552 114.951 C 98.339 113.272, 98.939 111.892, 98.552 110.350 C 97.837 107.504, 102.250 103.774, 105.397 104.564 C 106.857 104.930, 108.270 104.341, 109.773 102.742 L 111.993 100.379 102.157 94.689 C 96.747 91.560, 92.136 89.015, 91.911 89.033 C 91.685 89.052, 90.487 89.911, 89.250 90.944 M 93 96.385 C 93 96.808, 94.975 101.739, 95.559 102.774 C 95.896 103.369, 99 101.734, 99 100.961 C 99 100.507, 97.650 99.175, 96 98 C 94.350 96.825, 93 96.098, 93 96.385 M 196.355 102.276 C 195.528 105.175, 195.011 105.531, 191.218 105.807 C 188.898 105.977, 187.001 106.427, 187.003 106.807 C 187.004 107.188, 188.353 108.400, 190 109.500 C 193.273 111.686, 193.509 112.531, 191.972 116.574 C 190.580 120.235, 191.512 120.807, 194.419 118.076 C 196.980 115.670, 199.793 115.841, 202.032 118.539 C 204.244 121.204, 204.930 120.054, 203.517 116.048 L 202.122 112.096 205.811 109.081 L 209.500 106.067 204.725 106.034 C 200.222 106.002, 199.916 105.828, 199.346 102.979 C 198.500 98.750, 197.432 98.499, 196.355 102.276 M 313.305 108.771 C 308.797 112.472, 305.085 116.022, 305.055 116.659 C 305.025 117.296, 307.379 120.334, 310.287 123.409 C 316.159 129.619, 318.453 130.241, 323.696 127.044 C 331.504 122.283, 332.254 115.606, 325.904 107.376 C 323.623 104.419, 321.699 102.010, 321.628 102.021 C 321.558 102.033, 317.812 105.070, 313.305 108.771 M 74.013 107.476 C 72.767 109.805, 72.947 110.182, 77.063 113.834 L 81.439 117.717 74.556 116.795 C 67.880 115.900, 67.595 115.952, 65.086 118.506 L 62.500 121.139 65.605 123.820 C 67.312 125.294, 71.247 128.690, 74.349 131.367 L 79.990 136.234 81.986 133.867 L 83.982 131.500 79.278 127.145 L 74.574 122.789 82.106 123.495 C 89.419 124.181, 89.687 124.127, 91.300 121.664 L 92.962 119.128 85.231 112.067 C 80.979 108.184, 77.014 105.005, 76.419 105.003 C 75.824 105.002, 74.742 106.114, 74.013 107.476 M 141.500 111.550 C 139.850 112.378, 137.438 113.869, 136.140 114.864 C 133.863 116.611, 133.837 116.784, 135.390 119.788 C 137.294 123.470, 137.492 132.577, 135.735 135.686 C 135.056 136.888, 132.864 140.263, 130.864 143.186 C 125.627 150.840, 124.386 155.596, 126.381 160.370 C 127.784 163.728, 130 164.623, 130 161.832 C 130 161.254, 134.050 151.430, 139 140 C 148.287 118.556, 149.951 111.963, 146.418 110.607 C 144.495 109.869, 145.074 109.758, 141.500 111.550 M 257.200 111.200 C 254.937 113.463, 256.011 117.704, 262.871 133.590 C 266.650 142.340, 271.091 152.810, 272.741 156.855 C 275.722 164.165, 275.750 164.195, 277.370 161.882 C 280.752 157.054, 279.328 151.108, 272.339 140.872 C 268.305 134.963, 267.798 133.598, 267.677 128.297 C 267.579 124.063, 268.061 121.556, 269.350 119.589 C 270.345 118.070, 271.011 116.705, 270.830 116.556 C 270.648 116.407, 268.520 114.871, 266.100 113.142 C 261.392 109.780, 259.116 109.284, 257.200 111.200 M 317.018 114.870 C 313.095 118.253, 312.705 118.939, 313.890 120.368 C 315.716 122.568, 318.194 122.422, 321.365 119.927 C 323.966 117.881, 324.577 115.668, 323.393 112.582 C 322.538 110.353, 322.056 110.526, 317.018 114.870 M 172.106 117.250 C 170.922 120.771, 170.590 121.002, 166.672 121.041 L 162.500 121.081 165.885 123.976 L 169.269 126.870 167.643 130.935 C 165.785 135.578, 166.600 136.119, 170 132.500 C 172.911 129.402, 173.139 129.405, 176.923 132.589 C 180.268 135.404, 180.590 134.990, 178.876 130.075 C 177.822 127.050, 177.960 126.675, 181.126 123.967 L 184.500 121.081 180.386 121.041 C 176.570 121.003, 176.166 120.728, 174.820 117.250 L 173.368 113.500 172.106 117.250 M 123.931 124.250 C 117.027 131.488, 107.736 151.344, 105.567 163.500 C 102.576 180.265, 102.568 189.383, 105.526 212.191 C 106.597 220.451, 107.135 221.004, 129.215 236.489 C 139.311 243.570, 148.644 252.929, 151.198 258.535 C 153.214 262.961, 176.899 267.101, 191.350 265.553 L 198 264.841 198 260.035 C 198 253.337, 195.314 245.727, 191.292 241.028 C 187.092 236.121, 177.837 231.616, 168.839 230.097 C 153.731 227.547, 152.358 226.009, 151.790 211 C 151.465 202.416, 150.889 198.612, 149.516 196 L 147.678 192.500 146.717 195.500 C 146.189 197.150, 144.369 201.650, 142.672 205.500 C 140.032 211.492, 139.590 213.691, 139.603 220.771 L 139.618 229.042 136.559 229.874 C 131.433 231.269, 130.376 229.971, 129.651 221.395 C 129.293 217.162, 129 210.841, 129 207.349 C 129 200.462, 129.169 200.619, 121.750 200.651 C 120.787 200.655, 119.966 199.948, 119.923 199.079 C 119.881 198.211, 119.655 196.600, 119.421 195.500 C 119.186 194.400, 118.461 188.948, 117.810 183.385 C 116.817 174.912, 116.876 171.738, 118.168 163.832 C 119.847 153.558, 124.150 143.176, 129.038 137.609 C 132.345 133.844, 133.802 127.368, 132.071 124.133 C 130.568 121.324, 126.670 121.380, 123.931 124.250 M 149.306 127.750 C 147.886 130.912, 144.101 139.214, 140.896 146.197 C 129.529 170.969, 128.689 173.682, 131.035 178.066 C 131.787 179.471, 133.138 180, 135.976 180 C 141.372 180, 141.845 178.416, 137.608 174.535 C 133.999 171.230, 133.230 169.235, 134.876 167.450 C 135.358 166.927, 139.015 160.650, 143.003 153.500 C 146.991 146.350, 151.280 138.688, 152.535 136.473 C 154.488 133.023, 155.464 127.987, 155.097 123.250 C 155.044 122.563, 154.300 122, 153.445 122 C 152.517 122, 150.846 124.322, 149.306 127.750 M 249.347 123.538 C 247.993 127.066, 250.468 133.653, 258.594 148.152 C 263.325 156.593, 268.102 164.984, 269.210 166.799 L 271.223 170.097 267.194 173.931 C 264.224 176.756, 263.458 178.058, 264.282 178.882 C 265.909 180.509, 271.547 180.250, 273.016 178.481 C 274.958 176.141, 273.600 167.370, 270.233 160.500 C 268.615 157.200, 263.998 147.188, 259.973 138.250 C 253.034 122.843, 250.800 119.751, 249.347 123.538 M 272.607 123.582 C 271.017 127.726, 272.043 132.768, 275.360 137.112 C 285.077 149.838, 289.137 166.747, 286.860 185 C 285.214 198.189, 284.541 199.733, 280.111 200.481 C 276.417 201.105, 276.227 201.326, 275.627 205.706 C 275.282 208.221, 275 214.506, 275 219.672 C 275 228.493, 274.863 229.115, 272.755 229.895 C 271.490 230.363, 269.308 230.306, 267.755 229.765 C 265.052 228.823, 265 228.650, 264.999 220.652 C 264.999 213.700, 264.564 211.581, 262.046 206.260 C 260.423 202.828, 258.798 198.440, 258.436 196.510 C 256.807 187.826, 253.816 195.651, 253.088 210.500 C 252.765 217.100, 252.134 223.066, 251.687 223.757 C 250.231 226.006, 245.090 228.057, 236.088 229.981 C 215.918 234.291, 207.626 242.483, 206.780 258.933 L 206.500 264.366 210.500 265.262 C 216.720 266.655, 233.545 265.495, 243.238 263.005 C 251.843 260.794, 252.022 260.686, 255.006 255.836 C 259.445 248.622, 264.993 243.524, 279.043 233.749 C 296.584 221.545, 297.329 220.636, 299.349 208.942 C 302.577 190.260, 300.979 166.524, 295.450 151.023 C 292.140 141.742, 282.679 124.911, 279.566 122.765 C 277.639 121.437, 273.232 121.954, 272.607 123.582 M 328 130.105 C 323.325 133.403, 319.373 136.461, 319.217 136.900 C 319.062 137.338, 319.790 138.754, 320.835 140.045 L 322.736 142.393 329.618 137.666 C 333.403 135.066, 337.508 132.165, 338.740 131.219 L 340.979 129.500 338.740 126.804 L 336.500 124.108 328 130.105 M 57.615 132.465 C 55.863 135.138, 55.530 137, 56.803 137 C 57.245 137, 61.470 139.426, 66.192 142.391 L 74.778 147.782 76.107 145.141 C 76.838 143.688, 77.582 142.218, 77.760 141.874 C 78.019 141.373, 60.542 130, 59.513 130 C 59.357 130, 58.503 131.109, 57.615 132.465 M 180.527 138.956 C 180.202 139.482, 179.335 139.682, 178.599 139.400 C 177.824 139.102, 177.037 139.752, 176.724 140.948 C 176.377 142.273, 175.649 142.803, 174.683 142.432 C 173.728 142.066, 172.941 142.611, 172.523 143.928 C 172.161 145.067, 171.194 146, 170.374 146 C 169.553 146, 169.151 146.435, 169.480 146.967 C 169.809 147.499, 169.160 148.508, 168.039 149.208 C 166.917 149.908, 166 151.273, 166 152.241 C 166 153.208, 165.325 154, 164.500 154 C 163.567 154, 163 154.944, 163 156.500 C 163 157.875, 162.550 159, 162 159 C 161.450 159, 161 159.863, 161 160.917 C 161 161.971, 160.511 162.996, 159.913 163.196 C 159.315 163.395, 158.794 165.682, 158.755 168.279 C 158.700 171.886, 158.308 173.008, 157.092 173.032 C 155.704 173.060, 155.721 173.232, 157.231 174.378 C 158.539 175.372, 158.858 176.737, 158.536 179.973 C 158.246 182.887, 158.582 184.725, 159.590 185.732 C 160.653 186.796, 160.772 187.570, 160.013 188.484 C 159.226 189.433, 159.494 189.896, 161.069 190.308 C 162.673 190.727, 163.021 191.358, 162.521 192.935 C 162.074 194.341, 162.366 195.203, 163.425 195.610 C 164.285 195.940, 164.737 196.616, 164.430 197.112 C 164.124 197.609, 164.576 198.719, 165.436 199.579 C 166.296 200.439, 167 201.861, 167 202.738 C 167 203.615, 167.296 204.037, 167.658 203.675 C 168.722 202.612, 170.932 205.014, 170.331 206.581 C 169.935 207.613, 170.442 207.943, 172.140 207.758 C 173.902 207.565, 174.461 207.967, 174.346 209.342 C 174.230 210.723, 174.695 211.051, 176.206 210.656 C 177.623 210.286, 178.370 210.701, 178.725 212.055 C 179.107 213.517, 179.803 213.837, 181.614 213.382 C 183.418 212.929, 184 213.192, 184 214.459 C 184 215.699, 184.539 215.964, 186.070 215.478 C 187.638 214.980, 188.273 215.328, 188.687 216.910 C 189.459 219.864, 190.357 219.536, 193.364 215.196 C 196.368 210.861, 196.672 209.528, 194.462 210.376 C 193.604 210.706, 192.684 210.339, 192.379 209.546 C 192.080 208.765, 191.201 208.370, 190.426 208.667 C 189.651 208.964, 188.741 208.488, 188.404 207.609 C 188.066 206.731, 187.384 206.262, 186.888 206.569 C 186.392 206.876, 185.716 206.423, 185.386 205.563 C 185.056 204.704, 184.159 204, 183.393 204 C 182.627 204, 182 203.550, 182 203 C 182 202.450, 181.550 202, 181 202 C 179.700 202, 175.425 197.725, 175.750 196.750 C 175.888 196.338, 175.420 196, 174.711 196 C 173.016 196, 167.820 186.002, 167.620 182.354 C 167.534 180.784, 167.130 178.974, 166.722 178.331 C 166.315 177.687, 166.632 176.511, 167.427 175.716 C 168.505 174.638, 168.583 173.983, 167.736 173.136 C 166.888 172.288, 166.898 171.702, 167.776 170.824 C 168.599 170.001, 168.640 169.271, 167.912 168.394 C 167.150 167.476, 167.443 166.833, 169 166 C 170.651 165.116, 170.876 164.555, 170 163.500 C 169.129 162.450, 169.312 161.903, 170.804 161.105 C 172.177 160.370, 172.597 159.344, 172.256 157.560 C 171.844 155.406, 171.495 155.200, 169.794 156.110 C 168.595 156.752, 167.993 157.866, 168.271 158.929 C 168.540 159.959, 167.927 161.189, 166.789 161.899 C 165.319 162.818, 165.115 163.434, 165.950 164.439 C 166.780 165.440, 166.647 165.921, 165.412 166.395 C 164.303 166.821, 163.958 167.731, 164.345 169.210 C 164.659 170.412, 164.430 171.982, 163.836 172.698 C 163.057 173.636, 163.082 174.394, 163.926 175.411 C 164.727 176.376, 164.765 177.027, 164.049 177.470 C 162.347 178.522, 160.869 176.988, 161.542 174.868 C 161.885 173.788, 161.623 172.251, 160.960 171.452 C 159.988 170.280, 160.081 170, 161.445 170 C 162.681 170, 162.964 169.462, 162.498 167.995 C 162.082 166.684, 162.383 165.790, 163.368 165.412 C 164.196 165.095, 164.657 164.269, 164.391 163.577 C 164.126 162.886, 164.578 161.765, 165.395 161.087 C 166.212 160.409, 166.657 159.270, 166.383 158.556 C 166.109 157.842, 166.614 156.978, 167.506 156.636 C 168.397 156.294, 168.847 155.561, 168.504 155.007 C 168.162 154.453, 168.350 154, 168.922 154 C 169.494 154, 170.240 152.890, 170.581 151.533 C 170.921 150.177, 171.718 149.164, 172.350 149.283 C 172.983 149.403, 173.489 148.353, 173.476 146.951 C 173.455 144.658, 173.680 144.507, 175.718 145.451 C 178.306 146.649, 178.720 148, 176.500 148 C 175.667 148, 175 148.889, 175 150 C 175 151.153, 174.333 152, 173.427 152 C 171.202 152, 172.068 155.389, 174.407 155.840 C 175.808 156.110, 176.130 155.782, 175.663 154.563 C 175.264 153.525, 175.669 152.662, 176.767 152.212 C 177.720 151.820, 178.500 150.825, 178.500 150 C 178.500 148.980, 179.285 148.611, 180.953 148.847 C 182.990 149.136, 183.204 148.950, 182.212 147.755 C 180.768 146.016, 181.595 145, 184.452 145 C 185.896 145, 186.571 144.370, 186.571 143.025 C 186.571 140.147, 184.298 139.737, 182.505 142.292 C 180.995 144.443, 180.972 144.416, 181.602 141.250 C 182.232 138.092, 181.727 137.015, 180.527 138.956 M 334.242 143.485 L 324.984 147.872 326.195 150.686 C 326.860 152.234, 327.490 153.639, 327.594 153.809 C 327.699 153.978, 329.462 153.416, 331.514 152.559 C 336.124 150.633, 336.009 150.628, 335.959 152.750 C 335.937 153.713, 334.621 156.018, 333.034 157.873 C 330.207 161.178, 330.181 161.313, 331.756 164.614 C 333.301 167.855, 333.435 167.917, 335.283 166.244 C 336.340 165.287, 337.826 163.303, 338.586 161.833 C 339.848 159.394, 340.221 159.257, 342.883 160.262 C 346.540 161.642, 350.991 159.161, 351.017 155.727 C 351.042 152.580, 345.747 138.990, 344.519 139.049 C 343.959 139.076, 339.334 141.072, 334.242 143.485 M 50.702 147.414 C 48.079 150.288, 44.330 161.748, 45.612 162.970 C 46.848 164.147, 62.167 169.992, 64 169.986 C 65.671 169.980, 68.954 161.798, 69.734 155.700 C 70.551 149.308, 65.215 145.686, 60.829 149.655 C 59.112 151.209, 59 151.180, 59 149.190 C 59 147.174, 56.415 145, 54.018 145 C 53.406 145, 51.913 146.086, 50.702 147.414 M 341.750 147.778 C 339.747 148.200, 339.561 149.312, 341.035 152.066 C 342.464 154.736, 345.004 154.532, 344.985 151.750 C 344.964 148.703, 343.851 147.336, 341.750 147.778 M 52.462 153.517 C 52.208 154.333, 51.803 155.638, 51.563 156.417 C 51.323 157.197, 51.849 158.112, 52.733 158.451 C 54.475 159.119, 55.960 157.477, 55.985 154.857 C 56.005 152.697, 53.066 151.579, 52.462 153.517 M 59.958 157.078 C 58.613 159.591, 59.365 162, 61.493 162 C 63.165 162, 65.384 157.430, 64.448 155.916 C 63.460 154.317, 61.110 154.926, 59.958 157.078 M 211.490 157.653 C 210.670 158.472, 210 159.786, 210 160.571 C 210 161.357, 209.311 162, 208.469 162 C 207.626 162, 206.639 162.787, 206.275 163.750 C 205.910 164.713, 205.004 166.114, 204.262 166.865 C 203.314 167.825, 203.107 169.531, 203.568 172.604 C 204.093 176.108, 203.904 177.100, 202.612 177.595 C 201.725 177.936, 201 178.841, 201 179.607 C 201 181.482, 200.279 181.365, 197.273 179 C 195.874 177.900, 193.778 176.993, 192.615 176.985 C 191.452 176.976, 189.871 176.571, 189.102 176.084 C 187.519 175.082, 183.502 179.165, 182.871 182.417 C 181.985 186.994, 180.018 184.995, 176.559 176 C 176.241 175.175, 176.203 176.639, 176.472 179.253 C 177.378 188.033, 183.452 196.483, 191.478 200.129 C 196.009 202.187, 206.236 202.621, 210.651 200.943 C 212.878 200.096, 213.140 199.700, 211.966 198.958 C 211.160 198.448, 210.950 198.008, 211.500 197.980 C 213.937 197.856, 207.172 195.067, 204.358 195.035 C 201.849 195.007, 201.090 194.493, 200.584 192.479 C 199.335 187.503, 202.727 185.050, 209.675 185.908 C 210.321 185.988, 211.151 185.565, 211.519 184.969 C 211.910 184.336, 212.946 185.263, 214.004 187.192 C 215.733 190.344, 215.736 190.642, 214.081 193.516 C 212.361 196.502, 212.346 199, 214.049 199 C 215.765 199, 222.109 192.669, 224.457 188.613 C 229.062 180.659, 228.653 167.797, 223.557 160.298 C 221.566 157.369, 220.470 156.721, 217.071 156.468 C 214.433 156.271, 212.451 156.692, 211.490 157.653 M 240.638 160.500 C 240.322 161.325, 239.088 162, 237.897 162 C 235.852 162, 235.884 162.121, 238.467 164.153 C 240.899 166.066, 241.016 166.411, 239.518 167.250 C 237.980 168.110, 238.016 168.323, 239.916 169.654 C 242.373 171.375, 242.635 173, 240.453 173 C 239.126 173, 239.161 173.337, 240.698 175.375 C 242.392 177.621, 245 177.900, 245 175.834 C 245 175.310, 244.557 175.156, 244.015 175.491 C 243.123 176.042, 243.230 174.143, 244.450 167.825 C 244.647 166.805, 244.279 166.339, 243.510 166.634 C 242.040 167.199, 240.702 162.940, 241.608 160.579 C 241.941 159.711, 241.989 159, 241.714 159 C 241.439 159, 240.955 159.675, 240.638 160.500 M 344 167.526 C 334.104 170.972, 332.455 172.599, 335.212 176.193 C 336.402 177.743, 337.197 177.629, 345.673 174.685 C 350.718 172.933, 355.149 171.195, 355.518 170.822 C 356.332 170, 355.118 163.955, 354.171 164.109 C 353.802 164.169, 349.225 165.707, 344 167.526 M 206.476 169.250 L 204.901 172.500 206.951 170.139 C 208.078 168.841, 209 167.378, 209 166.889 C 209 165.141, 208.026 166.052, 206.476 169.250 M 239.892 181.719 C 241.922 184.519, 242.427 184.523, 244.244 181.750 C 245.682 179.556, 245.626 179.500, 242.001 179.500 C 238.345 179.500, 238.310 179.537, 239.892 181.719 M 162.349 181.468 C 162.659 182.275, 162.425 183.238, 161.828 183.606 C 161.120 184.044, 161.310 184.594, 162.372 185.188 C 163.267 185.689, 164.007 186.865, 164.015 187.800 C 164.028 189.233, 164.176 189.270, 164.958 188.034 C 165.541 187.111, 165.505 186.109, 164.860 185.332 C 164.296 184.652, 164.127 183.174, 164.485 182.048 C 164.963 180.541, 164.693 180, 163.460 180 C 162.399 180, 161.992 180.538, 162.349 181.468 M 184 186.500 C 182.988 187.720, 183.035 188, 184.255 188 C 185.080 188, 186.315 187.325, 187 186.500 C 188.012 185.280, 187.965 185, 186.745 185 C 185.920 185, 184.685 185.675, 184 186.500 M 238.567 187.320 C 239.533 190.523, 240.314 190.898, 242.091 189.009 C 243.558 187.449, 243.458 187.234, 240.796 186.229 C 238.093 185.209, 237.951 185.278, 238.567 187.320 M 348 188.679 C 348 189.602, 347.467 191.832, 346.815 193.635 C 345.694 196.735, 345.335 196.927, 340.139 197.206 L 334.647 197.500 338.909 200.446 C 342.786 203.125, 343.109 203.667, 342.480 206.446 C 342.100 208.125, 341.538 210.622, 341.231 211.993 L 340.674 214.486 344.270 211.743 C 348.680 208.380, 349.299 208.363, 353.411 211.500 C 355.214 212.875, 356.964 214, 357.300 214 C 357.636 214, 357.256 212.143, 356.456 209.874 C 354.467 204.237, 354.549 203.944, 359.160 200.250 L 363.216 197 357.797 197 L 352.378 197 351.097 192 C 349.865 187.193, 348 185.193, 348 188.679 M 218.723 191.103 C 214.791 195.583, 215.372 197.001, 219.500 193 C 221.425 191.134, 223 189.246, 223 188.804 C 223 187.199, 221.388 188.066, 218.723 191.103 M 166 192 C 166 193.100, 166.173 194, 166.383 194 C 166.594 194, 167.002 193.100, 167.290 192 C 167.577 190.900, 167.405 190, 166.906 190 C 166.408 190, 166 190.900, 166 192 M 220.703 195.792 C 218.666 197.878, 217.030 200.240, 217.068 201.042 C 217.107 201.881, 217.604 201.528, 218.239 200.209 C 218.851 198.938, 219.934 198.145, 220.671 198.427 C 221.526 198.755, 222.011 198.145, 222.032 196.719 C 222.063 194.553, 222.098 194.546, 223.532 196.441 C 224.922 198.279, 225 198.212, 225 195.191 C 225 193.436, 224.866 192, 224.703 192 C 224.540 192, 222.740 193.706, 220.703 195.792 M 167.707 196.322 C 167.428 197.049, 168.072 198.188, 169.139 198.854 C 170.205 199.520, 170.829 200.468, 170.524 200.961 C 170.220 201.453, 170.877 202.144, 171.985 202.495 C 173.093 202.847, 174 203.779, 174 204.567 C 174 205.355, 174.675 206, 175.500 206 C 177.733 206, 177.315 202.895, 175 202.290 C 173.866 201.993, 173 200.926, 173 199.824 C 173 198.702, 172.549 198.161, 171.933 198.542 C 171.345 198.905, 170.619 198.257, 170.316 197.101 C 169.694 194.722, 168.462 194.354, 167.707 196.322 M 213.750 201.392 C 212.744 202.156, 212.037 203.949, 212.086 205.610 L 212.172 208.500 213.017 205.686 C 213.481 204.138, 214.398 202.226, 215.053 201.436 C 216.525 199.662, 216.050 199.646, 213.750 201.392 M 219.872 208.409 L 218.274 211.934 222.140 211.717 C 224.924 211.561, 225.650 211.220, 224.734 210.500 C 224.034 209.950, 223.013 208.461, 222.465 207.192 C 221.489 204.929, 221.438 204.953, 219.872 208.409 M 178.333 207.500 C 178.333 208.325, 179.172 209, 180.198 209 C 181.224 209, 182.321 209.672, 182.636 210.494 C 183.454 212.627, 184.913 211.382, 184.308 209.068 C 184.029 208.003, 183.220 207.362, 182.503 207.637 C 181.787 207.912, 180.905 207.656, 180.542 207.068 C 179.583 205.516, 178.333 205.760, 178.333 207.500 M 93.480 241.254 C 93.116 243.197, 92.971 249.825, 93.159 255.982 C 93.495 267.001, 93.547 267.218, 96.500 269.763 L 99.500 272.349 100.133 265.925 C 101.413 252.938, 101.143 247.781, 99.066 245.564 C 98.003 244.429, 96.460 242.200, 95.638 240.611 L 94.143 237.721 93.480 241.254 M 302.250 243.204 C 298.747 248.623, 298.450 251.457, 299.867 266 L 300.500 272.500 303.596 269.481 C 306.504 266.645, 306.731 265.885, 307.324 256.981 C 307.865 248.856, 307.155 239.809, 305.877 238.549 C 305.670 238.344, 304.038 240.439, 302.250 243.204 M 105.428 248.917 C 105.192 249.146, 105 254.208, 105 260.167 C 105 268.159, 105.328 271.004, 106.250 271.014 C 106.938 271.021, 108.513 271.299, 109.750 271.630 C 111.804 272.181, 112 271.891, 112 268.298 C 112 263.704, 114.681 254, 115.950 254 C 116.429 254, 119.562 254.853, 122.911 255.895 C 128.803 257.729, 129 257.731, 129 255.951 C 129 254.939, 127.913 252.849, 126.584 251.306 C 124.264 248.612, 123.803 248.500, 115.012 248.500 C 109.976 248.500, 105.663 248.688, 105.428 248.917 M 274.241 250.250 C 273.082 251.488, 271.677 253.705, 271.119 255.177 L 270.105 257.854 273.302 256.554 C 275.061 255.839, 278.140 254.960, 280.143 254.601 C 283.564 253.989, 283.854 254.144, 284.893 257.124 C 285.502 258.870, 286.006 261.694, 286.014 263.399 C 286.042 269.731, 286.894 271, 291.117 271 L 295 271 294.989 263.250 C 294.983 258.988, 294.710 253.882, 294.383 251.904 C 293.793 248.334, 293.760 248.313, 289.894 249.019 C 287.752 249.411, 284.087 249.361, 281.750 248.909 C 279.413 248.457, 277.241 248.068, 276.924 248.044 C 276.608 248.020, 275.400 249.012, 274.241 250.250 M 118.044 262.780 C 116.543 268.184, 116.752 277.201, 118.434 279.602 C 119.336 280.889, 122.025 282.133, 125.684 282.953 C 128.883 283.671, 133.975 284.843, 137 285.559 C 140.025 286.274, 144.075 287.089, 146 287.368 C 147.925 287.648, 154.450 288.650, 160.500 289.596 C 177.976 292.327, 223.716 292.028, 243 289.056 C 255.715 287.097, 279.018 282.432, 279.523 281.746 C 280.499 280.417, 281.999 273.957, 281.994 271.101 C 281.987 266.620, 280.154 259.787, 279.129 260.421 C 277.822 261.228, 263.966 264.771, 253.500 266.973 C 215.150 275.043, 167.129 273.702, 133.750 263.629 C 131.137 262.841, 129 262.370, 129 262.583 C 129 262.796, 126.767 262.091, 124.039 261.015 L 119.078 259.060 118.044 262.780 M 202 265.890 C 202 266.458, 200.200 267.408, 198 268 C 195.800 268.592, 194 269.217, 194 269.388 C 194 269.559, 197.375 269.712, 201.500 269.728 C 205.625 269.744, 209 269.361, 209 268.878 C 209 268.395, 208.132 268, 207.071 268 C 206.011 268, 204.436 267.293, 203.571 266.429 C 202.707 265.564, 202 265.322, 202 265.890 M 139 269.740 C 139 269.956, 140.213 271.724, 141.696 273.668 C 143.179 275.613, 144.642 279.070, 144.946 281.352 C 145.429 284.970, 145.851 285.540, 148.250 285.816 C 150.735 286.102, 151 285.829, 151 282.985 C 151 280.863, 152.149 278.434, 154.526 275.533 L 158.052 271.230 155.362 270.555 C 153.180 270.007, 152.257 270.399, 150.481 272.626 L 148.291 275.373 146.600 272.794 C 145.599 271.266, 143.705 270.037, 141.955 269.780 C 140.330 269.542, 139 269.523, 139 269.740 M 254.514 272.406 C 253.824 274.108, 253.029 276.175, 252.746 277 C 252.181 278.652, 252.256 278.771, 250.030 272.687 C 249.150 270.278, 248.533 269.918, 245.751 270.187 L 242.500 270.500 242.211 279.250 C 242.042 284.357, 242.321 288, 242.879 288 C 245.994 288, 247.003 286.590, 247.070 282.143 L 247.139 277.500 248.619 282.314 C 249.673 285.746, 250.555 287.038, 251.692 286.814 C 253.666 286.425, 254.539 284.871, 256.361 278.500 L 257.792 273.500 257.896 279.250 C 257.987 284.299, 258.244 285, 260 285 C 261.819 285, 262 284.333, 262 277.613 L 262 270.227 258.884 269.770 C 256.154 269.369, 255.612 269.696, 254.514 272.406 M 95 273.987 C 95 275.767, 113.009 292.821, 120.528 298.162 C 144.910 315.481, 168.845 322.991, 199.676 322.997 C 222.696 323.001, 237.534 319.820, 257.478 310.606 C 273.304 303.293, 293.345 288.346, 300.166 278.766 L 302.117 276.027 299.059 276.638 C 297.036 277.043, 296 276.852, 296 276.075 C 296 275.277, 294.157 274.996, 290.250 275.200 L 284.500 275.500 284.198 280.190 C 283.853 285.536, 283.697 285.627, 270 288.502 C 240.594 294.672, 234.058 295.324, 201 295.385 C 172.959 295.436, 167.908 295.193, 155 293.167 C 147.025 291.915, 137.715 290.242, 134.312 289.450 C 130.909 288.657, 126.409 287.744, 124.312 287.419 C 118.040 286.450, 115.762 284.845, 114.273 280.347 C 112.966 276.399, 112.677 276.176, 108.451 275.840 C 106.006 275.645, 103.834 275.939, 103.626 276.493 C 103.409 277.071, 101.492 276.578, 99.124 275.333 C 96.856 274.141, 95 273.535, 95 273.987 M 170.237 279.473 C 168.457 283.084, 167 286.479, 167 287.019 C 167 287.559, 168.350 288, 170 288 C 171.650 288, 173 287.494, 173 286.875 C 173 285.611, 179.027 286.466, 179.950 287.861 C 180.563 288.787, 186 290.313, 186 289.560 C 186 289.296, 184.457 285.575, 182.572 281.291 C 179.557 274.440, 178.801 273.464, 176.309 273.204 C 173.721 272.934, 173.192 273.481, 170.237 279.473 M 224 281 L 224 289 227 289 L 230 289 230 281 L 230 273 227 273 L 224 273 224 281 M 200.750 274.718 L 196 275.110 196 282.555 L 196 290 202.277 290 C 211.227 290, 214.790 287.067, 211.158 282.690 C 210.310 281.668, 210.243 280.968, 210.951 280.530 C 211.528 280.174, 211.993 279.346, 211.985 278.691 C 211.940 275.190, 208.743 274.060, 200.750 274.718 M 175.221 280 C 174.465 281.939, 174.573 282.576, 175.701 282.838 C 177.811 283.329, 178.163 282.600, 177.119 279.895 L 176.196 277.500 175.221 280 M 202 279 C 202 279.550, 202.900 280, 204 280 C 205.100 280, 206 279.550, 206 279 C 206 278.450, 205.100 278, 204 278 C 202.900 278, 202 278.450, 202 279 M 202 285.570 C 202 286.612, 202.729 287.032, 204.172 286.820 C 207.373 286.348, 207.716 284, 204.583 284 C 202.903 284, 202 284.549, 202 285.570 M 90.646 288.726 C 90.303 290.802, 90.017 294.910, 90.011 297.856 C 90.002 302.289, 89.483 303.865, 87 307 C 85.350 309.083, 84 311.207, 84 311.720 C 84 312.735, 88.242 317, 89.252 317 C 89.595 317, 91.307 315.007, 93.057 312.570 C 95.821 308.721, 97.270 307.781, 104.119 305.397 C 108.454 303.888, 112 302.312, 112 301.895 C 112 301.478, 110.637 300.166, 108.972 298.980 C 105.886 296.783, 105.415 296.808, 98.665 299.537 C 97.002 300.210, 96.861 299.789, 97.165 295.044 C 97.475 290.192, 97.272 289.630, 94.385 287.380 L 91.270 284.952 90.646 288.726 M 296.631 290.457 L 293.763 292.764 297.913 298.382 C 300.196 301.472, 301.875 304, 301.645 304 C 301.416 304, 297.744 302.830, 293.486 301.400 L 285.745 298.800 283.220 301.326 L 280.694 303.851 286.343 311.676 C 289.450 315.979, 293.007 320.721, 294.246 322.214 L 296.500 324.927 299.379 322.573 L 302.258 320.219 298.189 314.883 C 295.951 311.948, 294.242 309.425, 294.391 309.276 C 294.540 309.126, 297.943 310.120, 301.953 311.484 L 309.243 313.963 312.121 311.914 C 313.705 310.786, 314.994 309.557, 314.987 309.182 C 314.975 308.513, 301.901 290.478, 300.311 288.935 C 299.865 288.503, 298.209 289.188, 296.631 290.457 M 117.032 321.468 C 111.846 326.676, 107.817 331.150, 108.078 331.412 C 108.340 331.673, 109.892 332.586, 111.527 333.439 C 114.242 334.857, 114.607 334.848, 115.728 333.334 C 116.869 331.796, 117.246 331.807, 120.978 333.490 C 124.213 334.949, 125 335.825, 125 337.967 C 125 340.013, 125.791 341.007, 128.415 342.258 C 132.697 344.300, 132.669 344.365, 133.482 330.362 C 133.829 324.388, 134.299 318.576, 134.526 317.448 C 134.817 315.999, 134.094 314.896, 132.065 313.698 C 130.485 312.764, 128.577 312, 127.826 312 C 127.075 312, 122.218 316.261, 117.032 321.468 M 259.218 315.760 C 257.413 316.658, 256.133 317.905, 256.373 318.531 C 256.838 319.742, 258.554 341.302, 258.421 344.250 C 258.324 346.382, 258.133 346.381, 262.540 344.279 C 265.311 342.958, 266.055 342.070, 265.746 340.453 C 265.440 338.852, 266.283 337.806, 269.256 336.095 C 272.881 334.009, 273.301 333.962, 274.961 335.464 C 276.615 336.961, 277.033 336.952, 280.408 335.343 L 284.063 333.599 274.300 323.800 C 268.931 318.410, 264.079 314.029, 263.519 314.064 C 262.958 314.099, 261.023 314.863, 259.218 315.760 M 124.815 323.365 C 122.812 325.875, 122.418 327.018, 123.265 327.865 C 125.510 330.110, 126.799 328.996, 127.157 324.500 C 127.353 322.025, 127.511 320, 127.507 320 C 127.503 320, 126.292 321.514, 124.815 323.365 M 152.453 331.743 C 155.548 340.100, 155.633 340.705, 154.375 345.472 C 152.911 351.024, 153.131 351.480, 157.694 352.332 C 161.138 352.974, 161.200 352.893, 162.522 346 C 162.995 343.534, 165.127 340.530, 169.742 335.828 L 176.292 329.156 171.905 327.974 C 167.545 326.800, 167.499 326.815, 164.403 330.397 C 162.690 332.378, 161.043 334, 160.744 334 C 160.444 334, 159.672 331.800, 159.026 329.110 C 157.998 324.822, 157.478 324.146, 154.802 323.610 C 149.058 322.462, 149.039 322.527, 152.453 331.743 M 263.393 324.582 C 263.727 325.452, 264 327.252, 264 328.582 C 264 331.076, 265.452 331.633, 267.905 330.080 C 269.058 329.350, 268.879 328.645, 266.905 326.151 C 264.310 322.870, 262.411 322.022, 263.393 324.582 M 227.972 327.239 C 226.063 327.708, 223.488 329.221, 222.250 330.601 C 217.044 336.410, 221.170 343, 230.012 343 C 235.478 343, 238.100 344.970, 236 347.500 C 234.303 349.544, 231.389 349.387, 229.807 347.165 C 228.635 345.520, 228.163 345.469, 225.250 346.668 C 221.356 348.271, 221.216 349.307, 224.455 352.545 C 230.820 358.911, 246.559 351.061, 244.431 342.582 C 243.411 338.519, 240.485 336.742, 233.753 336.098 C 229.127 335.656, 227.500 335.110, 227.500 334 C 227.500 333.107, 228.613 332.372, 230.250 332.184 C 231.762 332.010, 233 332.347, 233 332.934 C 233 334.276, 235.094 334.295, 238.545 332.983 C 241.053 332.029, 241.128 331.826, 239.739 329.733 C 237.991 327.099, 232.922 326.025, 227.972 327.239 M 191.539 332.250 C 191.320 332.938, 189.309 338.597, 187.071 344.828 C 184.832 351.058, 183 356.570, 183 357.078 C 183 357.585, 184.769 358, 186.930 358 C 190.245 358, 190.911 357.647, 191.180 355.750 C 191.452 353.840, 192.199 353.455, 196.129 353.200 C 200.367 352.926, 200.812 353.116, 201.398 355.450 C 201.952 357.658, 202.581 358, 206.086 358 C 210.647 358, 210.625 358.223, 206.998 348.500 C 205.972 345.750, 204.142 340.688, 202.932 337.250 L 200.732 331 196.335 331 C 193.696 331, 191.778 331.500, 191.539 332.250 M 195.796 339.579 C 195.503 340.086, 194.958 342.188, 194.586 344.250 C 193.948 347.784, 194.057 348, 196.474 348 C 198.766 348, 198.967 347.709, 198.370 345.250 C 197.231 340.558, 196.351 338.620, 195.796 339.579" stroke="none" fill="#121212" fill-rule="evenodd"/><path d="M 0.038 101.250 L 0.076 202.500 4.795 197.445 C 10.454 191.383, 14.699 183.626, 18.995 171.500 C 22.330 162.086, 23.008 159.834, 27.425 143.500 C 32.742 123.840, 38.270 107.356, 42.564 98.362 C 47.171 88.712, 54.719 78.423, 60.210 74.306 C 64.870 70.813, 74.572 66, 76.955 66 C 78.233 66, 80.770 63.704, 83.919 59.698 C 90.208 51.695, 98.803 44.941, 109.744 39.404 C 118.049 35.202, 125.725 32.573, 159 22.535 C 178.222 16.737, 187.565 12.269, 194.865 5.386 L 200.500 0.073 100.250 0.036 L 0 0 0.038 101.250 M 205 4.059 C 213.447 11.566, 231.633 19.397, 262 28.606 C 267.668 30.325, 279.603 34.286, 286.309 36.674 C 301.547 42.101, 318.041 54.694, 322.191 64.069 C 323.044 65.997, 325.002 67.615, 328.089 68.943 C 340.537 74.298, 352.521 87.321, 360.352 104 C 364.375 112.571, 372.393 134.917, 373.392 140.347 C 373.890 143.048, 381.301 166.961, 383.513 173 C 386.057 179.948, 392.623 192.025, 396.501 196.891 L 400 201.281 400 100.641 L 400 0 300.250 0.030 L 200.500 0.060 205 4.059 M 195.130 7.127 C 187.243 14.420, 177.173 19.096, 157 24.831 C 124.638 34.033, 113.529 38.220, 101.915 45.594 C 94.193 50.497, 88.415 55.785, 84.114 61.885 C 81.534 65.543, 79.960 66.627, 74.617 68.425 C 53.405 75.564, 42.528 93.679, 28.637 145 C 26.180 154.075, 23.191 164.425, 21.994 168 C 18.390 178.761, 10.445 194.221, 6.125 198.882 L 2.063 203.265 6.023 207.764 C 9.773 212.023, 18.160 227.792, 21.309 236.500 C 23.642 242.951, 26.645 252.878, 29.023 262 C 35.011 284.965, 39.018 296.985, 44.023 307 C 51.631 322.220, 61.746 332.746, 75 339.233 C 78.575 340.982, 83.975 344.648, 87 347.378 C 100.941 359.960, 114.481 366.226, 146.500 374.911 C 172.897 382.070, 186.097 387.375, 195.631 394.652 L 199.943 397.944 206.138 393.829 C 217.888 386.024, 231.676 380.498, 253 375.045 C 271.273 370.372, 273.738 369.691, 280.801 367.370 C 296.400 362.244, 310.052 353.598, 317.500 344.129 C 320.433 340.401, 322.563 338.744, 325.483 337.921 C 342.146 333.222, 353.952 319.919, 362.491 296.222 C 365.022 289.197, 368.716 276.160, 369.638 271 C 369.883 269.625, 370.707 266.025, 371.468 263 C 372.229 259.975, 373.853 253.450, 375.077 248.500 C 377.766 237.628, 381.079 227.168, 383.869 220.743 C 386.249 215.263, 392.788 205.370, 395.844 202.626 L 397.931 200.752 394.586 196.626 C 390.331 191.376, 385.876 183.291, 382.669 175 C 379.636 167.155, 370.314 137.637, 369.572 133.528 C 368.985 130.272, 363.459 114.852, 360.126 107.168 C 353.548 92.001, 345.912 82.138, 335.161 74.920 C 331.125 72.211, 326.756 69.726, 325.451 69.398 C 323.947 69.021, 322.005 66.899, 320.139 63.593 C 316.048 56.343, 307.709 49.084, 297.319 43.727 C 287.267 38.544, 282.136 36.600, 262.500 30.537 C 226.376 19.382, 212.986 13.508, 203 4.434 L 200.500 2.162 195.130 7.127 M 180 40.529 C 159.037 43.048, 137.003 49.976, 119.285 59.620 C 76.460 82.928, 46.087 123.301, 35.866 170.500 C 32.977 183.841, 32.729 218.154, 35.437 230 C 36.379 234.125, 37.359 238.556, 37.613 239.847 C 38.703 245.390, 44.430 261.153, 48.204 269 C 67.446 309.006, 103.407 340.631, 145.503 354.570 C 165.427 361.167, 178.058 363.210, 199.500 363.306 C 224.550 363.418, 232.705 362.189, 256 354.791 C 297.628 341.569, 333.422 311.014, 353.012 271.976 C 360.135 257.783, 363.039 249.289, 367.197 230.500 C 370.383 216.101, 370.360 187.224, 367.150 172.020 C 360.344 139.772, 346.864 114.178, 324.545 91.125 C 286.902 52.245, 234.668 33.961, 180 40.529 M 181 41.632 C 160.176 45.440, 155.679 46.530, 143 50.845 C 133.956 53.923, 113.596 64.161, 106 69.449 C 82.897 85.536, 63.022 107.888, 51.594 130.635 C 45.012 143.735, 39.259 160.223, 37.509 171 C 37.196 172.925, 36.430 177.200, 35.807 180.500 C 33.824 190.995, 34.375 214.923, 36.912 228.419 C 43.155 261.642, 57.198 288.148, 81.496 312.570 C 101.896 333.073, 123.740 346.338, 150.597 354.532 C 193.086 367.496, 241.303 363.440, 279 343.731 C 295.852 334.920, 307.970 326.082, 321.090 313.033 C 352.052 282.237, 368 244.320, 368 201.500 C 368 158.879, 351.985 120.834, 321.039 89.937 C 297.019 65.955, 268.963 51.003, 234.500 43.814 C 226.646 42.176, 220.101 41.669, 204 41.452 C 192.725 41.299, 182.375 41.380, 181 41.632 M 204.477 48.410 C 204.025 49.869, 202.142 69.435, 202.424 69.740 C 202.546 69.871, 204.076 70.265, 205.823 70.615 L 209 71.250 209 64.925 C 209 57.772, 209.495 57.882, 213.816 66 C 216.255 70.583, 217.245 71.551, 219.750 71.804 C 223.112 72.144, 223.168 71.964, 224.585 56.381 L 225.233 49.261 222.176 48.813 L 219.120 48.364 218.423 54.879 L 217.725 61.394 214.409 54.817 C 211.548 49.143, 210.663 48.178, 207.954 47.780 C 206.170 47.518, 204.669 47.790, 204.477 48.410 M 179.300 60.088 C 177.138 68.792, 176.627 72.303, 177.476 72.629 C 179.331 73.341, 184 71.200, 184 69.638 C 184 68.818, 185.361 68.012, 187.250 67.715 C 189.701 67.328, 190.884 67.688, 192.063 69.178 C 193.331 70.783, 194.211 70.999, 196.741 70.327 L 199.857 69.500 194.756 58.750 L 189.655 48 185.979 48 L 182.304 48 179.300 60.088 M 156.942 53.472 C 155.535 54.237, 153.820 56.100, 153.131 57.612 C 152.050 59.984, 152.141 60.713, 153.789 62.930 C 155.312 64.979, 156.792 65.601, 161.091 66 C 165.192 66.380, 166.562 66.920, 166.815 68.253 C 167.243 70.509, 164.277 71.654, 161.881 70.158 C 159.704 68.798, 157.040 68.688, 155.158 69.881 C 154.045 70.586, 154.040 71.092, 155.130 72.837 C 157.933 77.325, 164.374 77.606, 170.623 73.512 C 172.523 72.266, 173 71.081, 173 67.599 C 173 62.123, 171.451 60.785, 164.439 60.203 C 160.948 59.914, 159 59.298, 159 58.483 C 159 56.514, 161.778 55.921, 163.401 57.544 C 165.187 59.330, 170 57.883, 170 55.560 C 170 52.149, 161.789 50.835, 156.942 53.472 M 240.998 64.007 C 239.173 70.061, 237.865 75.180, 238.090 75.383 C 238.316 75.586, 239.487 76.055, 240.693 76.425 C 242.693 77.039, 243.071 76.477, 244.985 70.049 C 246.140 66.172, 247.349 63, 247.671 63 C 247.994 63, 247.949 66.541, 247.572 70.868 C 246.911 78.440, 246.970 78.759, 249.118 79.320 C 251.632 79.978, 252.611 78.995, 256.665 71.745 C 258.127 69.130, 259.482 67.149, 259.676 67.343 C 259.870 67.537, 259.091 70.733, 257.944 74.444 C 256.798 78.156, 256.032 81.365, 256.242 81.575 C 256.452 81.785, 257.680 82.079, 258.970 82.228 C 261.135 82.479, 261.565 81.676, 264.525 71.850 L 267.734 61.200 265.320 60.100 C 260.971 58.118, 259.335 58.803, 256 64 C 254.235 66.750, 252.567 69, 252.294 69 C 252.020 69, 251.954 66.038, 252.148 62.418 L 252.500 55.835 248.500 54.433 C 246.300 53.661, 244.458 53.023, 244.408 53.015 C 244.357 53.007, 242.822 57.953, 240.998 64.007 M 185.676 57.875 C 184.583 63.331, 184.909 63.979, 187.815 62.136 C 188.896 61.450, 188.883 60.700, 187.740 57.901 L 186.352 54.500 185.676 57.875 M 140.750 58.689 C 139.019 59.142, 138.360 62.027, 139.685 63.352 C 140.660 64.326, 142.874 71, 142.223 71 C 141.925 71, 139.298 69.201, 136.385 67.001 C 130.937 62.888, 130.814 62.871, 125.272 65.514 C 124.980 65.653, 132.763 86.096, 133.321 86.654 C 133.552 86.886, 134.931 86.533, 136.385 85.870 C 139.199 84.588, 139.202 84.025, 136.431 77.250 C 135.700 75.463, 135.311 74, 135.566 74 C 135.822 74, 138.427 75.591, 141.356 77.536 C 145.933 80.575, 147.055 80.930, 149.341 80.061 C 150.803 79.504, 152 78.485, 152 77.794 C 152 75.243, 144.625 58.004, 143.581 58.116 C 142.987 58.180, 141.713 58.438, 140.750 58.689 M 272.725 76.100 C 267.926 80.006, 264 83.554, 264 83.985 C 264 84.417, 265.177 85.541, 266.616 86.484 C 268.959 88.020, 269.389 88.039, 270.756 86.673 C 272.122 85.306, 272.578 85.367, 275.140 87.262 C 276.836 88.516, 278 90.307, 278 91.662 C 278 93.158, 278.974 94.452, 280.816 95.405 L 283.632 96.861 285.939 84.887 C 287.208 78.302, 288.079 72.797, 287.873 72.654 C 286.328 71.581, 282.010 69, 281.760 69 C 281.589 69, 277.524 72.195, 272.725 76.100 M 115.608 71.496 C 114.568 72.283, 113.275 73.075, 112.735 73.255 C 112.018 73.494, 119.948 89.185, 122.654 92.885 C 123.014 93.376, 129 90.918, 129 90.279 C 129 89.777, 117.895 69.977, 117.645 70.032 C 117.565 70.049, 116.649 70.708, 115.608 71.496 M 183.500 76.492 C 165.889 78.506, 153.566 82.174, 137.831 90.085 C 124.608 96.733, 115.278 103.569, 103.928 114.924 C 91.573 127.284, 86.647 134.227, 79.459 149.408 C 72.474 164.163, 69.785 173.935, 68.360 189.750 L 67.707 197 62.381 197 L 57.056 197 55.354 191.250 L 53.652 185.500 52.036 191 L 50.419 196.500 45.029 197 L 39.640 197.500 43.820 200.386 C 46.119 201.973, 48 203.548, 47.999 203.886 C 47.999 204.224, 47.082 206.914, 45.960 209.864 L 43.922 215.228 48.804 211.644 L 53.687 208.059 57.843 211.116 C 62.474 214.521, 63.041 213.735, 60.441 207.514 C 59.584 205.462, 59.022 203.685, 59.191 203.564 C 59.361 203.442, 61.117 202.141, 63.094 200.672 C 65.071 199.202, 66.916 198, 67.194 198 C 67.471 198, 67.993 202.613, 68.352 208.250 C 69.252 222.378, 69.716 224.865, 73.699 236.894 C 84.539 269.631, 106.578 294.740, 138.620 310.859 C 151.412 317.294, 168.111 322.469, 180.500 323.837 C 188.307 324.700, 210.775 324.689, 218.734 323.819 C 246.158 320.822, 274.441 306.724, 295.502 285.554 C 319.438 261.494, 331.101 233.915, 331.260 201 C 331.423 167.256, 319.555 138.808, 295.226 114.625 C 272.017 91.555, 244.974 79.084, 211.500 76.011 C 198.640 74.831, 197.924 74.843, 183.500 76.492 M 278.648 78.845 C 276.221 81.378, 276.094 81.833, 277.485 82.988 C 278.345 83.701, 279.178 84.108, 279.337 83.893 C 279.759 83.317, 281.852 76, 281.593 76 C 281.473 76, 280.147 77.280, 278.648 78.845 M 174 79.507 C 156.274 83.131, 143.733 87.806, 130.687 95.653 C 100.666 113.712, 80.821 140.350, 71.947 174.500 C 69.796 182.776, 69.488 213.545, 71.463 222.764 C 73.759 233.478, 77.390 243.896, 82.178 253.510 C 89.524 268.261, 89.500 268.270, 89.500 250.568 C 89.500 236.448, 89.678 234.908, 91.606 232.323 C 94.104 228.974, 97 228.055, 97 230.611 C 97 231.578, 97.947 234.326, 99.105 236.718 C 102.210 243.131, 106.660 245.090, 117.449 244.791 C 125.556 244.566, 126.056 244.680, 128.904 247.408 C 130.703 249.132, 132.375 252.183, 133.126 255.114 C 134.469 260.356, 135.806 261.233, 144.500 262.579 C 146.700 262.919, 148.857 263.417, 149.294 263.685 C 149.730 263.953, 148.716 261.943, 147.040 259.219 C 143.575 253.588, 137.092 247.334, 128.672 241.500 C 116.069 232.768, 106.392 225.120, 104.291 222.230 C 103.076 220.559, 101.790 217.011, 101.434 214.346 C 101.077 211.681, 100.642 209.259, 100.466 208.965 C 100.291 208.671, 99.651 203.913, 99.043 198.391 C 96.551 175.747, 102.548 152.600, 117.320 127.845 C 122.445 119.257, 123.789 117.788, 132.098 111.699 C 141.651 104.698, 144.064 103.948, 148.928 106.463 C 152.087 108.096, 153 109.800, 153 114.056 C 153 116.255, 153.715 117.319, 155.986 118.493 C 159.651 120.388, 160.617 123.774, 159.226 129.853 C 158.577 132.692, 158.523 135.109, 159.087 136.162 C 161.443 140.565, 159.705 147.128, 153.426 157.529 C 149.593 163.879, 149.153 165.281, 148.869 172.054 C 148.579 178.977, 148.770 179.832, 151.373 183.244 C 154.426 187.247, 158 197.410, 158 202.089 C 158 203.979, 158.514 205, 159.465 205 C 161.496 205, 167.272 210.243, 169.013 213.666 C 173.278 222.051, 174.645 223.490, 179.608 224.815 C 185.724 226.447, 192.846 230.948, 195.945 235.140 C 197.247 236.901, 199.358 241.303, 200.635 244.921 C 201.913 248.539, 202.967 250.568, 202.979 249.428 C 203.076 239.930, 212.387 228.771, 223.102 225.311 C 228.036 223.718, 229.958 222.519, 231.500 220.072 C 238.011 209.742, 239.924 207.351, 242.762 206 C 244.927 204.970, 246.107 203.560, 246.531 201.500 C 246.871 199.850, 247.399 197.623, 247.705 196.551 C 248.181 194.883, 247.799 194.992, 245.054 197.301 C 241.514 200.280, 234.590 201.232, 235.600 198.601 C 235.895 197.832, 235.656 196.905, 235.068 196.542 C 234.417 196.140, 234 196.881, 234 198.441 C 234 201.225, 233.075 201.675, 231.200 199.800 C 230.267 198.867, 230 199.227, 230 201.422 C 230 203.723, 230.258 204.031, 231.394 203.088 C 233.161 201.621, 243 200.398, 243 201.645 C 243 202.153, 241.603 203.394, 239.896 204.402 C 236.274 206.542, 229.268 206.087, 227.445 203.593 C 226.500 202.302, 226.151 202.603, 225.274 205.459 C 224.235 208.843, 224.245 208.857, 226.820 207.878 C 229.522 206.851, 237 207.621, 237 208.927 C 237 209.984, 232.338 211.988, 229.703 212.063 C 227.599 212.124, 227.612 212.171, 229.976 213.115 C 231.998 213.922, 232.181 214.274, 230.976 215.036 C 230.164 215.549, 228.011 215.976, 226.191 215.985 C 224.371 215.993, 223.131 216.403, 223.435 216.895 C 224.106 217.980, 221.698 219, 218.465 219 C 215.726 219, 211 217.042, 211 215.907 C 211 214.633, 214.967 213.775, 217.693 214.459 C 220.043 215.049, 220.115 214.972, 218.621 213.478 C 217.729 212.587, 217 211.189, 217 210.373 C 217 209.417, 216.121 209.888, 214.532 211.694 L 212.063 214.500 212.032 212.102 C 212.002 209.851, 211.858 209.913, 209.693 213.102 L 207.387 216.500 209.612 217.142 C 212.357 217.933, 216.926 221.188, 216.969 222.382 C 217.036 224.273, 208.648 222.103, 206.120 219.575 C 204.704 218.159, 204.098 217, 204.773 217 C 205.473 217, 206 215.695, 206 213.960 C 206 212.288, 206.892 209.172, 207.983 207.034 L 209.965 203.148 204.658 203.696 C 193.182 204.880, 181.676 198.089, 176.686 187.186 C 173.711 180.686, 173.705 169.327, 176.673 162.844 C 180.834 153.755, 192.198 146, 201.356 146 C 211.742 146, 222.327 153.043, 226.687 162.854 C 230.345 171.085, 230.635 175.804, 227.989 184.034 C 226.281 189.346, 225.998 191.398, 226.856 192.256 C 227.715 193.115, 228 192.695, 228 190.578 C 228 188.063, 228.181 187.905, 229.661 189.128 C 231.154 190.361, 231.268 190.216, 230.789 187.692 C 230.371 185.493, 230.577 185.008, 231.739 185.453 C 232.896 185.897, 233.084 185.470, 232.592 183.511 C 232.218 182.019, 232.390 181, 233.016 181 C 233.726 181, 233.695 180.298, 232.922 178.854 C 231.882 176.911, 231.985 176.763, 234.001 177.290 L 236.229 177.873 233.864 175.299 C 232.137 173.419, 231.857 172.599, 232.823 172.255 C 233.796 171.909, 233.552 171.152, 231.899 169.392 C 229.956 167.324, 229.886 167, 231.381 167 C 232.737 167, 232.504 166.455, 230.306 164.483 C 228.763 163.098, 227.950 162.027, 228.500 162.101 C 231.659 162.529, 232.212 161.764, 229.720 160.412 C 228.192 159.583, 227.206 158.476, 227.529 157.953 C 228.408 156.531, 233.718 156.803, 236.866 158.431 C 239.619 159.855, 239.631 159.847, 239.192 156.855 C 238.877 154.711, 238.443 154.157, 237.675 154.925 C 236.077 156.523, 226.706 156.245, 224.441 154.532 C 222.954 153.407, 222.851 153.051, 224 153.010 C 224.825 152.980, 223.486 152.043, 221.025 150.926 C 217.920 149.518, 216.950 148.649, 217.856 148.089 C 218.751 147.536, 218.192 147.088, 216.081 146.666 C 212.164 145.883, 212.109 144.128, 215.976 143.355 C 219.629 142.624, 219.364 142.623, 223.212 143.392 C 225.678 143.886, 226.110 144.290, 225.171 145.229 C 224.232 146.168, 224.686 146.785, 227.233 148.030 C 229.030 148.908, 230.417 150.072, 230.315 150.618 C 230.213 151.164, 231.451 152.109, 233.065 152.718 C 235.856 153.772, 235.999 153.695, 235.985 151.163 C 235.973 149.064, 235.761 148.818, 234.985 150 C 234.109 151.333, 233.891 151.333, 233.015 150 C 232.474 149.175, 232.024 147.657, 232.015 146.628 C 232.003 145.174, 231.699 145.005, 230.657 145.870 C 229.614 146.736, 229.055 146.415, 228.153 144.436 C 227.514 143.034, 226.566 142.150, 226.046 142.472 C 224.560 143.390, 223 139.535, 223 134.943 C 223 131.304, 222.800 130.921, 221.476 132.020 C 219.343 133.790, 218.880 132.904, 219.965 129.123 C 220.806 126.189, 220.589 125.599, 217.698 122.968 L 214.500 120.059 218.592 120.029 C 222.523 120.001, 222.735 119.833, 224.008 115.750 L 225.334 111.500 226.501 115.500 C 227.599 119.259, 227.936 119.530, 232.085 120 L 236.500 120.500 233.173 122.873 C 229.749 125.315, 229.679 125.756, 231.658 132.385 C 232.128 133.962, 231.630 133.820, 228.610 131.516 C 224.605 128.461, 224.372 128.560, 226.393 132.457 C 227.315 134.234, 227.966 134.695, 228.317 133.821 C 229.089 131.899, 230.956 134.790, 231.015 138 C 231.057 140.283, 231.155 140.338, 232.146 138.632 C 233.126 136.946, 233.407 137.141, 235.035 140.632 C 236.027 142.759, 236.875 143.938, 236.919 143.250 C 237.096 140.511, 238.951 142.223, 239.610 145.733 C 240.184 148.796, 240.443 149.110, 241.048 147.483 C 241.782 145.510, 241.789 145.510, 242.540 147.500 C 242.956 148.600, 243.904 151.017, 244.648 152.872 C 245.391 154.727, 246 157.566, 246 159.181 C 246 160.796, 246.418 161.860, 246.928 161.544 C 248.148 160.791, 249.220 164.262, 248.416 166.359 C 247.982 167.488, 248.322 168, 249.507 168 C 250.831 168, 251.118 168.633, 250.755 170.750 C 250.495 172.262, 249.944 174.293, 249.530 175.261 C 248.947 176.625, 249.145 176.881, 250.407 176.397 C 251.823 175.854, 251.894 176.149, 250.952 178.636 C 250.355 180.211, 248.884 182.549, 247.683 183.831 L 245.500 186.163 248.427 185.429 L 251.354 184.694 249.028 187.960 C 246.152 191.999, 240.488 194.650, 238.413 192.927 C 237.258 191.969, 237 192.225, 237 194.327 C 237 196.873, 237.034 196.884, 240.468 195.449 C 242.375 194.652, 244.842 194, 245.949 194 C 247.282 194, 248.182 193.123, 248.614 191.403 C 248.972 189.974, 250.790 186.808, 252.653 184.367 C 256.038 179.933, 256.040 179.922, 255.392 171.715 C 254.856 164.929, 254.177 162.543, 251.490 158 C 244.367 145.955, 242.969 140.894, 245.444 136.108 C 246.428 134.205, 246.534 132.918, 245.810 131.626 C 242.887 126.402, 244.522 119.852, 249.180 118.129 C 250.677 117.575, 251.339 116.302, 251.591 113.491 C 252.028 108.621, 254.605 105.997, 259.608 105.326 C 263.221 104.841, 264.173 105.310, 272.504 111.672 C 282.116 119.013, 285.078 122.778, 292.432 137 C 297.762 147.309, 300.364 153.965, 303.184 164.500 C 306.106 175.413, 306.299 199.466, 303.566 212 C 301.230 222.711, 299.574 224.568, 279.630 238.826 C 265.858 248.671, 260.043 254.071, 257.097 259.750 C 255.712 262.420, 256.214 262.487, 262.222 260.440 C 266.171 259.095, 266.886 258.421, 267.426 255.542 C 268.898 247.695, 275.036 243.830, 284.641 244.701 C 295.337 245.671, 300.361 242.733, 302.515 234.251 C 303.863 228.943, 304.616 228.597, 307.207 232.092 C 310.038 235.911, 311.149 244.572, 310.250 255.812 C 309.265 268.121, 309.906 267.914, 316.911 253.663 C 323.226 240.815, 325.523 234.097, 328.012 221.199 C 332.456 198.174, 329.288 173.255, 319.026 150.517 C 311.741 134.374, 295.490 114.712, 279.747 102.992 C 250.470 81.196, 209.856 72.177, 174 79.507 M 292.734 89.701 C 286.322 97.857, 286.055 98.404, 287.639 100.154 C 290.036 102.802, 291.131 102.452, 294.442 97.976 C 296.060 95.789, 297.666 94, 298.011 94 C 298.355 94, 298.227 97.181, 297.726 101.068 C 296.928 107.248, 297.037 108.384, 298.595 110.105 C 299.575 111.188, 300.901 111.945, 301.540 111.787 C 302.180 111.629, 305.693 107.908, 309.347 103.518 L 315.990 95.535 313.497 93.042 L 311.004 90.549 309.407 92.829 C 308.529 94.083, 306.720 96.322, 305.387 97.805 L 302.964 100.500 303.427 98 C 305.262 88.100, 305.180 85.821, 302.903 83.396 C 301.664 82.078, 300.392 81.022, 300.076 81.048 C 299.759 81.074, 296.455 84.968, 292.734 89.701 M 89.250 90.944 C 86.275 93.426, 86.382 94.755, 90.500 106.429 C 92.425 111.886, 94 116.575, 94 116.850 C 94 117.124, 95.149 116.270, 96.552 114.951 C 98.339 113.272, 98.939 111.892, 98.552 110.350 C 97.837 107.504, 102.250 103.774, 105.397 104.564 C 106.857 104.930, 108.270 104.341, 109.773 102.742 L 111.993 100.379 102.157 94.689 C 96.747 91.560, 92.136 89.015, 91.911 89.033 C 91.685 89.052, 90.487 89.911, 89.250 90.944 M 93 96.385 C 93 96.808, 94.975 101.739, 95.559 102.774 C 95.896 103.369, 99 101.734, 99 100.961 C 99 100.507, 97.650 99.175, 96 98 C 94.350 96.825, 93 96.098, 93 96.385 M 196.355 102.276 C 195.528 105.175, 195.011 105.531, 191.218 105.807 C 188.898 105.977, 187.001 106.427, 187.003 106.807 C 187.004 107.188, 188.353 108.400, 190 109.500 C 193.273 111.686, 193.509 112.531, 191.972 116.574 C 190.580 120.235, 191.512 120.807, 194.419 118.076 C 196.980 115.670, 199.793 115.841, 202.032 118.539 C 204.244 121.204, 204.930 120.054, 203.517 116.048 L 202.122 112.096 205.811 109.081 L 209.500 106.067 204.725 106.034 C 200.222 106.002, 199.916 105.828, 199.346 102.979 C 198.500 98.750, 197.432 98.499, 196.355 102.276 M 313.305 108.771 C 308.797 112.472, 305.085 116.022, 305.055 116.659 C 305.025 117.296, 307.379 120.334, 310.287 123.409 C 316.159 129.619, 318.453 130.241, 323.696 127.044 C 331.504 122.283, 332.254 115.606, 325.904 107.376 C 323.623 104.419, 321.699 102.010, 321.628 102.021 C 321.558 102.033, 317.812 105.070, 313.305 108.771 M 74.013 107.476 C 72.767 109.805, 72.947 110.182, 77.063 113.834 L 81.439 117.717 74.556 116.795 C 67.880 115.900, 67.595 115.952, 65.086 118.506 L 62.500 121.139 65.605 123.820 C 67.312 125.294, 71.247 128.690, 74.349 131.367 L 79.990 136.234 81.986 133.867 L 83.982 131.500 79.278 127.145 L 74.574 122.789 82.106 123.495 C 89.419 124.181, 89.687 124.127, 91.300 121.664 L 92.962 119.128 85.231 112.067 C 80.979 108.184, 77.014 105.005, 76.419 105.003 C 75.824 105.002, 74.742 106.114, 74.013 107.476 M 141.500 111.550 C 139.850 112.378, 137.438 113.869, 136.140 114.864 C 133.863 116.611, 133.837 116.784, 135.390 119.788 C 137.294 123.470, 137.492 132.577, 135.735 135.686 C 135.056 136.888, 132.864 140.263, 130.864 143.186 C 125.627 150.840, 124.386 155.596, 126.381 160.370 C 127.784 163.728, 130 164.623, 130 161.832 C 130 161.254, 134.050 151.430, 139 140 C 148.287 118.556, 149.951 111.963, 146.418 110.607 C 144.495 109.869, 145.074 109.758, 141.500 111.550 M 257.200 111.200 C 254.937 113.463, 256.011 117.704, 262.871 133.590 C 266.650 142.340, 271.091 152.810, 272.741 156.855 C 275.722 164.165, 275.750 164.195, 277.370 161.882 C 280.752 157.054, 279.328 151.108, 272.339 140.872 C 268.305 134.963, 267.798 133.598, 267.677 128.297 C 267.579 124.063, 268.061 121.556, 269.350 119.589 C 270.345 118.070, 271.011 116.705, 270.830 116.556 C 270.648 116.407, 268.520 114.871, 266.100 113.142 C 261.392 109.780, 259.116 109.284, 257.200 111.200 M 317.018 114.870 C 313.095 118.253, 312.705 118.939, 313.890 120.368 C 315.716 122.568, 318.194 122.422, 321.365 119.927 C 323.966 117.881, 324.577 115.668, 323.393 112.582 C 322.538 110.353, 322.056 110.526, 317.018 114.870 M 172.106 117.250 C 170.922 120.771, 170.590 121.002, 166.672 121.041 L 162.500 121.081 165.885 123.976 L 169.269 126.870 167.643 130.935 C 165.785 135.578, 166.600 136.119, 170 132.500 C 172.911 129.402, 173.139 129.405, 176.923 132.589 C 180.268 135.404, 180.590 134.990, 178.876 130.075 C 177.822 127.050, 177.960 126.675, 181.126 123.967 L 184.500 121.081 180.386 121.041 C 176.570 121.003, 176.166 120.728, 174.820 117.250 L 173.368 113.500 172.106 117.250 M 123.931 124.250 C 117.027 131.488, 107.736 151.344, 105.567 163.500 C 102.576 180.265, 102.568 189.383, 105.526 212.191 C 106.597 220.451, 107.135 221.004, 129.215 236.489 C 139.311 243.570, 148.644 252.929, 151.198 258.535 C 153.214 262.961, 176.899 267.101, 191.350 265.553 L 198 264.841 198 260.035 C 198 253.337, 195.314 245.727, 191.292 241.028 C 187.092 236.121, 177.837 231.616, 168.839 230.097 C 153.731 227.547, 152.358 226.009, 151.790 211 C 151.465 202.416, 150.889 198.612, 149.516 196 L 147.678 192.500 146.717 195.500 C 146.189 197.150, 144.369 201.650, 142.672 205.500 C 140.032 211.492, 139.590 213.691, 139.603 220.771 L 139.618 229.042 136.559 229.874 C 131.433 231.269, 130.376 229.971, 129.651 221.395 C 129.293 217.162, 129 210.841, 129 207.349 C 129 200.462, 129.169 200.619, 121.750 200.651 C 120.787 200.655, 119.966 199.948, 119.923 199.079 C 119.881 198.211, 119.655 196.600, 119.421 195.500 C 119.186 194.400, 118.461 188.948, 117.810 183.385 C 116.817 174.912, 116.876 171.738, 118.168 163.832 C 119.847 153.558, 124.150 143.176, 129.038 137.609 C 132.345 133.844, 133.802 127.368, 132.071 124.133 C 130.568 121.324, 126.670 121.380, 123.931 124.250 M 149.306 127.750 C 147.886 130.912, 144.101 139.214, 140.896 146.197 C 129.529 170.969, 128.689 173.682, 131.035 178.066 C 131.787 179.471, 133.138 180, 135.976 180 C 141.372 180, 141.845 178.416, 137.608 174.535 C 133.999 171.230, 133.230 169.235, 134.876 167.450 C 135.358 166.927, 139.015 160.650, 143.003 153.500 C 146.991 146.350, 151.280 138.688, 152.535 136.473 C 154.488 133.023, 155.464 127.987, 155.097 123.250 C 155.044 122.563, 154.300 122, 153.445 122 C 152.517 122, 150.846 124.322, 149.306 127.750 M 249.347 123.538 C 247.993 127.066, 250.468 133.653, 258.594 148.152 C 263.325 156.593, 268.102 164.984, 269.210 166.799 L 271.223 170.097 267.194 173.931 C 264.224 176.756, 263.458 178.058, 264.282 178.882 C 265.909 180.509, 271.547 180.250, 273.016 178.481 C 274.958 176.141, 273.600 167.370, 270.233 160.500 C 268.615 157.200, 263.998 147.188, 259.973 138.250 C 253.034 122.843, 250.800 119.751, 249.347 123.538 M 272.607 123.582 C 271.017 127.726, 272.043 132.768, 275.360 137.112 C 285.077 149.838, 289.137 166.747, 286.860 185 C 285.214 198.189, 284.541 199.733, 280.111 200.481 C 276.417 201.105, 276.227 201.326, 275.627 205.706 C 275.282 208.221, 275 214.506, 275 219.672 C 275 228.493, 274.863 229.115, 272.755 229.895 C 271.490 230.363, 269.308 230.306, 267.755 229.765 C 265.052 228.823, 265 228.650, 264.999 220.652 C 264.999 213.700, 264.564 211.581, 262.046 206.260 C 260.423 202.828, 258.798 198.440, 258.436 196.510 C 256.807 187.826, 253.816 195.651, 253.088 210.500 C 252.765 217.100, 252.134 223.066, 251.687 223.757 C 250.231 226.006, 245.090 228.057, 236.088 229.981 C 215.918 234.291, 207.626 242.483, 206.780 258.933 L 206.500 264.366 210.500 265.262 C 216.720 266.655, 233.545 265.495, 243.238 263.005 C 251.843 260.794, 252.022 260.686, 255.006 255.836 C 259.445 248.622, 264.993 243.524, 279.043 233.749 C 296.584 221.545, 297.329 220.636, 299.349 208.942 C 302.577 190.260, 300.979 166.524, 295.450 151.023 C 292.140 141.742, 282.679 124.911, 279.566 122.765 C 277.639 121.437, 273.232 121.954, 272.607 123.582 M 328 130.105 C 323.325 133.403, 319.373 136.461, 319.217 136.900 C 319.062 137.338, 319.790 138.754, 320.835 140.045 L 322.736 142.393 329.618 137.666 C 333.403 135.066, 337.508 132.165, 338.740 131.219 L 340.979 129.500 338.740 126.804 L 336.500 124.108 328 130.105 M 57.615 132.465 C 55.863 135.138, 55.530 137, 56.803 137 C 57.245 137, 61.470 139.426, 66.192 142.391 L 74.778 147.782 76.107 145.141 C 76.838 143.688, 77.582 142.218, 77.760 141.874 C 78.019 141.373, 60.542 130, 59.513 130 C 59.357 130, 58.503 131.109, 57.615 132.465 M 180.527 138.956 C 180.202 139.482, 179.335 139.682, 178.599 139.400 C 177.824 139.102, 177.037 139.752, 176.724 140.948 C 176.377 142.273, 175.649 142.803, 174.683 142.432 C 173.728 142.066, 172.941 142.611, 172.523 143.928 C 172.161 145.067, 171.194 146, 170.374 146 C 169.553 146, 169.151 146.435, 169.480 146.967 C 169.809 147.499, 169.160 148.508, 168.039 149.208 C 166.917 149.908, 166 151.273, 166 152.241 C 166 153.208, 165.325 154, 164.500 154 C 163.567 154, 163 154.944, 163 156.500 C 163 157.875, 162.550 159, 162 159 C 161.450 159, 161 159.863, 161 160.917 C 161 161.971, 160.511 162.996, 159.913 163.196 C 159.315 163.395, 158.794 165.682, 158.755 168.279 C 158.700 171.886, 158.308 173.008, 157.092 173.032 C 155.704 173.060, 155.721 173.232, 157.231 174.378 C 158.539 175.372, 158.858 176.737, 158.536 179.973 C 158.246 182.887, 158.582 184.725, 159.590 185.732 C 160.653 186.796, 160.772 187.570, 160.013 188.484 C 159.226 189.433, 159.494 189.896, 161.069 190.308 C 162.673 190.727, 163.021 191.358, 162.521 192.935 C 162.074 194.341, 162.366 195.203, 163.425 195.610 C 164.285 195.940, 164.737 196.616, 164.430 197.112 C 164.124 197.609, 164.576 198.719, 165.436 199.579 C 166.296 200.439, 167 201.861, 167 202.738 C 167 203.615, 167.296 204.037, 167.658 203.675 C 168.722 202.612, 170.932 205.014, 170.331 206.581 C 169.935 207.613, 170.442 207.943, 172.140 207.758 C 173.902 207.565, 174.461 207.967, 174.346 209.342 C 174.230 210.723, 174.695 211.051, 176.206 210.656 C 177.623 210.286, 178.370 210.701, 178.725 212.055 C 179.107 213.517, 179.803 213.837, 181.614 213.382 C 183.418 212.929, 184 213.192, 184 214.459 C 184 215.699, 184.539 215.964, 186.070 215.478 C 187.638 214.980, 188.273 215.328, 188.687 216.910 C 189.459 219.864, 190.357 219.536, 193.364 215.196 C 196.368 210.861, 196.672 209.528, 194.462 210.376 C 193.604 210.706, 192.684 210.339, 192.379 209.546 C 192.080 208.765, 191.201 208.370, 190.426 208.667 C 189.651 208.964, 188.741 208.488, 188.404 207.609 C 188.066 206.731, 187.384 206.262, 186.888 206.569 C 186.392 206.876, 185.716 206.423, 185.386 205.563 C 185.056 204.704, 184.159 204, 183.393 204 C 182.627 204, 182 203.550, 182 203 C 182 202.450, 181.550 202, 181 202 C 179.700 202, 175.425 197.725, 175.750 196.750 C 175.888 196.338, 175.420 196, 174.711 196 C 173.016 196, 167.820 186.002, 167.620 182.354 C 167.534 180.784, 167.130 178.974, 166.722 178.331 C 166.315 177.687, 166.632 176.511, 167.427 175.716 C 168.505 174.638, 168.583 173.983, 167.736 173.136 C 166.888 172.288, 166.898 171.702, 167.776 170.824 C 168.599 170.001, 168.640 169.271, 167.912 168.394 C 167.150 167.476, 167.443 166.833, 169 166 C 170.651 165.116, 170.876 164.555, 170 163.500 C 169.129 162.450, 169.312 161.903, 170.804 161.105 C 172.177 160.370, 172.597 159.344, 172.256 157.560 C 171.844 155.406, 171.495 155.200, 169.794 156.110 C 168.595 156.752, 167.993 157.866, 168.271 158.929 C 168.540 159.959, 167.927 161.189, 166.789 161.899 C 165.319 162.818, 165.115 163.434, 165.950 164.439 C 166.780 165.440, 166.647 165.921, 165.412 166.395 C 164.303 166.821, 163.958 167.731, 164.345 169.210 C 164.659 170.412, 164.430 171.982, 163.836 172.698 C 163.057 173.636, 163.082 174.394, 163.926 175.411 C 164.727 176.376, 164.765 177.027, 164.049 177.470 C 162.347 178.522, 160.869 176.988, 161.542 174.868 C 161.885 173.788, 161.623 172.251, 160.960 171.452 C 159.988 170.280, 160.081 170, 161.445 170 C 162.681 170, 162.964 169.462, 162.498 167.995 C 162.082 166.684, 162.383 165.790, 163.368 165.412 C 164.196 165.095, 164.657 164.269, 164.391 163.577 C 164.126 162.886, 164.578 161.765, 165.395 161.087 C 166.212 160.409, 166.657 159.270, 166.383 158.556 C 166.109 157.842, 166.614 156.978, 167.506 156.636 C 168.397 156.294, 168.847 155.561, 168.504 155.007 C 168.162 154.453, 168.350 154, 168.922 154 C 169.494 154, 170.240 152.890, 170.581 151.533 C 170.921 150.177, 171.718 149.164, 172.350 149.283 C 172.983 149.403, 173.489 148.353, 173.476 146.951 C 173.455 144.658, 173.680 144.507, 175.718 145.451 C 178.306 146.649, 178.720 148, 176.500 148 C 175.667 148, 175 148.889, 175 150 C 175 151.153, 174.333 152, 173.427 152 C 171.202 152, 172.068 155.389, 174.407 155.840 C 175.808 156.110, 176.130 155.782, 175.663 154.563 C 175.264 153.525, 175.669 152.662, 176.767 152.212 C 177.720 151.820, 178.500 150.825, 178.500 150 C 178.500 148.980, 179.285 148.611, 180.953 148.847 C 182.990 149.136, 183.204 148.950, 182.212 147.755 C 180.768 146.016, 181.595 145, 184.452 145 C 185.896 145, 186.571 144.370, 186.571 143.025 C 186.571 140.147, 184.298 139.737, 182.505 142.292 C 180.995 144.443, 180.972 144.416, 181.602 141.250 C 182.232 138.092, 181.727 137.015, 180.527 138.956 M 334.242 143.485 L 324.984 147.872 326.195 150.686 C 326.860 152.234, 327.490 153.639, 327.594 153.809 C 327.699 153.978, 329.462 153.416, 331.514 152.559 C 336.124 150.633, 336.009 150.628, 335.959 152.750 C 335.937 153.713, 334.621 156.018, 333.034 157.873 C 330.207 161.178, 330.181 161.313, 331.756 164.614 C 333.301 167.855, 333.435 167.917, 335.283 166.244 C 336.340 165.287, 337.826 163.303, 338.586 161.833 C 339.848 159.394, 340.221 159.257, 342.883 160.262 C 346.540 161.642, 350.991 159.161, 351.017 155.727 C 351.042 152.580, 345.747 138.990, 344.519 139.049 C 343.959 139.076, 339.334 141.072, 334.242 143.485 M 50.702 147.414 C 48.079 150.288, 44.330 161.748, 45.612 162.970 C 46.848 164.147, 62.167 169.992, 64 169.986 C 65.671 169.980, 68.954 161.798, 69.734 155.700 C 70.551 149.308, 65.215 145.686, 60.829 149.655 C 59.112 151.209, 59 151.180, 59 149.190 C 59 147.174, 56.415 145, 54.018 145 C 53.406 145, 51.913 146.086, 50.702 147.414 M 341.750 147.778 C 339.747 148.200, 339.561 149.312, 341.035 152.066 C 342.464 154.736, 345.004 154.532, 344.985 151.750 C 344.964 148.703, 343.851 147.336, 341.750 147.778 M 52.462 153.517 C 52.208 154.333, 51.803 155.638, 51.563 156.417 C 51.323 157.197, 51.849 158.112, 52.733 158.451 C 54.475 159.119, 55.960 157.477, 55.985 154.857 C 56.005 152.697, 53.066 151.579, 52.462 153.517 M 59.958 157.078 C 58.613 159.591, 59.365 162, 61.493 162 C 63.165 162, 65.384 157.430, 64.448 155.916 C 63.460 154.317, 61.110 154.926, 59.958 157.078 M 211.490 157.653 C 210.670 158.472, 210 159.786, 210 160.571 C 210 161.357, 209.311 162, 208.469 162 C 207.626 162, 206.639 162.787, 206.275 163.750 C 205.910 164.713, 205.004 166.114, 204.262 166.865 C 203.314 167.825, 203.107 169.531, 203.568 172.604 C 204.093 176.108, 203.904 177.100, 202.612 177.595 C 201.725 177.936, 201 178.841, 201 179.607 C 201 181.482, 200.279 181.365, 197.273 179 C 195.874 177.900, 193.778 176.993, 192.615 176.985 C 191.452 176.976, 189.871 176.571, 189.102 176.084 C 187.519 175.082, 183.502 179.165, 182.871 182.417 C 181.985 186.994, 180.018 184.995, 176.559 176 C 176.241 175.175, 176.203 176.639, 176.472 179.253 C 177.378 188.033, 183.452 196.483, 191.478 200.129 C 196.009 202.187, 206.236 202.621, 210.651 200.943 C 212.878 200.096, 213.140 199.700, 211.966 198.958 C 211.160 198.448, 210.950 198.008, 211.500 197.980 C 213.937 197.856, 207.172 195.067, 204.358 195.035 C 201.849 195.007, 201.090 194.493, 200.584 192.479 C 199.335 187.503, 202.727 185.050, 209.675 185.908 C 210.321 185.988, 211.151 185.565, 211.519 184.969 C 211.910 184.336, 212.946 185.263, 214.004 187.192 C 215.733 190.344, 215.736 190.642, 214.081 193.516 C 212.361 196.502, 212.346 199, 214.049 199 C 215.765 199, 222.109 192.669, 224.457 188.613 C 229.062 180.659, 228.653 167.797, 223.557 160.298 C 221.566 157.369, 220.470 156.721, 217.071 156.468 C 214.433 156.271, 212.451 156.692, 211.490 157.653 M 240.638 160.500 C 240.322 161.325, 239.088 162, 237.897 162 C 235.852 162, 235.884 162.121, 238.467 164.153 C 240.899 166.066, 241.016 166.411, 239.518 167.250 C 237.980 168.110, 238.016 168.323, 239.916 169.654 C 242.373 171.375, 242.635 173, 240.453 173 C 239.126 173, 239.161 173.337, 240.698 175.375 C 242.392 177.621, 245 177.900, 245 175.834 C 245 175.310, 244.557 175.156, 244.015 175.491 C 243.123 176.042, 243.230 174.143, 244.450 167.825 C 244.647 166.805, 244.279 166.339, 243.510 166.634 C 242.040 167.199, 240.702 162.940, 241.608 160.579 C 241.941 159.711, 241.989 159, 241.714 159 C 241.439 159, 240.955 159.675, 240.638 160.500 M 344 167.526 C 334.104 170.972, 332.455 172.599, 335.212 176.193 C 336.402 177.743, 337.197 177.629, 345.673 174.685 C 350.718 172.933, 355.149 171.195, 355.518 170.822 C 356.332 170, 355.118 163.955, 354.171 164.109 C 353.802 164.169, 349.225 165.707, 344 167.526 M 206.476 169.250 L 204.901 172.500 206.951 170.139 C 208.078 168.841, 209 167.378, 209 166.889 C 209 165.141, 208.026 166.052, 206.476 169.250 M 239.892 181.719 C 241.922 184.519, 242.427 184.523, 244.244 181.750 C 245.682 179.556, 245.626 179.500, 242.001 179.500 C 238.345 179.500, 238.310 179.537, 239.892 181.719 M 162.349 181.468 C 162.659 182.275, 162.425 183.238, 161.828 183.606 C 161.120 184.044, 161.310 184.594, 162.372 185.188 C 163.267 185.689, 164.007 186.865, 164.015 187.800 C 164.028 189.233, 164.176 189.270, 164.958 188.034 C 165.541 187.111, 165.505 186.109, 164.860 185.332 C 164.296 184.652, 164.127 183.174, 164.485 182.048 C 164.963 180.541, 164.693 180, 163.460 180 C 162.399 180, 161.992 180.538, 162.349 181.468 M 184 186.500 C 182.988 187.720, 183.035 188, 184.255 188 C 185.080 188, 186.315 187.325, 187 186.500 C 188.012 185.280, 187.965 185, 186.745 185 C 185.920 185, 184.685 185.675, 184 186.500 M 238.567 187.320 C 239.533 190.523, 240.314 190.898, 242.091 189.009 C 243.558 187.449, 243.458 187.234, 240.796 186.229 C 238.093 185.209, 237.951 185.278, 238.567 187.320 M 348 188.679 C 348 189.602, 347.467 191.832, 346.815 193.635 C 345.694 196.735, 345.335 196.927, 340.139 197.206 L 334.647 197.500 338.909 200.446 C 342.786 203.125, 343.109 203.667, 342.480 206.446 C 342.100 208.125, 341.538 210.622, 341.231 211.993 L 340.674 214.486 344.270 211.743 C 348.680 208.380, 349.299 208.363, 353.411 211.500 C 355.214 212.875, 356.964 214, 357.300 214 C 357.636 214, 357.256 212.143, 356.456 209.874 C 354.467 204.237, 354.549 203.944, 359.160 200.250 L 363.216 197 357.797 197 L 352.378 197 351.097 192 C 349.865 187.193, 348 185.193, 348 188.679 M 218.723 191.103 C 214.791 195.583, 215.372 197.001, 219.500 193 C 221.425 191.134, 223 189.246, 223 188.804 C 223 187.199, 221.388 188.066, 218.723 191.103 M 166 192 C 166 193.100, 166.173 194, 166.383 194 C 166.594 194, 167.002 193.100, 167.290 192 C 167.577 190.900, 167.405 190, 166.906 190 C 166.408 190, 166 190.900, 166 192 M 220.703 195.792 C 218.666 197.878, 217.030 200.240, 217.068 201.042 C 217.107 201.881, 217.604 201.528, 218.239 200.209 C 218.851 198.938, 219.934 198.145, 220.671 198.427 C 221.526 198.755, 222.011 198.145, 222.032 196.719 C 222.063 194.553, 222.098 194.546, 223.532 196.441 C 224.922 198.279, 225 198.212, 225 195.191 C 225 193.436, 224.866 192, 224.703 192 C 224.540 192, 222.740 193.706, 220.703 195.792 M 167.707 196.322 C 167.428 197.049, 168.072 198.188, 169.139 198.854 C 170.205 199.520, 170.829 200.468, 170.524 200.961 C 170.220 201.453, 170.877 202.144, 171.985 202.495 C 173.093 202.847, 174 203.779, 174 204.567 C 174 205.355, 174.675 206, 175.500 206 C 177.733 206, 177.315 202.895, 175 202.290 C 173.866 201.993, 173 200.926, 173 199.824 C 173 198.702, 172.549 198.161, 171.933 198.542 C 171.345 198.905, 170.619 198.257, 170.316 197.101 C 169.694 194.722, 168.462 194.354, 167.707 196.322 M 213.750 201.392 C 212.744 202.156, 212.037 203.949, 212.086 205.610 L 212.172 208.500 213.017 205.686 C 213.481 204.138, 214.398 202.226, 215.053 201.436 C 216.525 199.662, 216.050 199.646, 213.750 201.392 M 394.746 206.841 C 387.065 215.052, 381.260 228.947, 375.671 252.500 C 374.235 258.550, 371.898 268.382, 370.477 274.350 C 361.389 312.533, 347.663 333.044, 327.151 339.093 C 324.042 340.010, 321.663 341.727, 318.806 345.115 C 310.554 354.902, 296.841 363.758, 282.553 368.529 C 275.994 370.718, 260.022 375.034, 240 380.026 C 230.037 382.510, 210.339 392.054, 203 397.952 L 200.500 399.961 300.500 399.731 L 400.500 399.500 400.755 301.555 C 400.895 247.685, 400.633 203.233, 400.172 202.772 C 399.712 202.312, 397.270 204.142, 394.746 206.841 M 1 302.441 L 1 400 100 400 C 154.450 400, 199 399.813, 199 399.585 C 199 399.357, 196.862 397.601, 194.248 395.682 C 183.763 387.986, 174.382 384.418, 135.500 373.339 C 112.768 366.861, 98.181 359.682, 87.274 349.604 C 84.099 346.669, 78.575 342.796, 75 340.998 C 56.179 331.530, 43.856 315.498, 35.031 289 C 32.341 280.922, 27.732 264.617, 26.496 258.802 C 24.948 251.521, 18.979 234.115, 15.085 225.528 C 12.204 219.173, 4.122 206.811, 1.985 205.491 C 1.341 205.093, 1 238.650, 1 302.441 M 219.872 208.409 L 218.274 211.934 222.140 211.717 C 224.924 211.561, 225.650 211.220, 224.734 210.500 C 224.034 209.950, 223.013 208.461, 222.465 207.192 C 221.489 204.929, 221.438 204.953, 219.872 208.409 M 178.333 207.500 C 178.333 208.325, 179.172 209, 180.198 209 C 181.224 209, 182.321 209.672, 182.636 210.494 C 183.454 212.627, 184.913 211.382, 184.308 209.068 C 184.029 208.003, 183.220 207.362, 182.503 207.637 C 181.787 207.912, 180.905 207.656, 180.542 207.068 C 179.583 205.516, 178.333 205.760, 178.333 207.500 M 93.480 241.254 C 93.116 243.197, 92.971 249.825, 93.159 255.982 C 93.495 267.001, 93.547 267.218, 96.500 269.763 L 99.500 272.349 100.133 265.925 C 101.413 252.938, 101.143 247.781, 99.066 245.564 C 98.003 244.429, 96.460 242.200, 95.638 240.611 L 94.143 237.721 93.480 241.254 M 302.250 243.204 C 298.747 248.623, 298.450 251.457, 299.867 266 L 300.500 272.500 303.596 269.481 C 306.504 266.645, 306.731 265.885, 307.324 256.981 C 307.865 248.856, 307.155 239.809, 305.877 238.549 C 305.670 238.344, 304.038 240.439, 302.250 243.204 M 105.428 248.917 C 105.192 249.146, 105 254.208, 105 260.167 C 105 268.159, 105.328 271.004, 106.250 271.014 C 106.938 271.021, 108.513 271.299, 109.750 271.630 C 111.804 272.181, 112 271.891, 112 268.298 C 112 263.704, 114.681 254, 115.950 254 C 116.429 254, 119.562 254.853, 122.911 255.895 C 128.803 257.729, 129 257.731, 129 255.951 C 129 254.939, 127.913 252.849, 126.584 251.306 C 124.264 248.612, 123.803 248.500, 115.012 248.500 C 109.976 248.500, 105.663 248.688, 105.428 248.917 M 274.241 250.250 C 273.082 251.488, 271.677 253.705, 271.119 255.177 L 270.105 257.854 273.302 256.554 C 275.061 255.839, 278.140 254.960, 280.143 254.601 C 283.564 253.989, 283.854 254.144, 284.893 257.124 C 285.502 258.870, 286.006 261.694, 286.014 263.399 C 286.042 269.731, 286.894 271, 291.117 271 L 295 271 294.989 263.250 C 294.983 258.988, 294.710 253.882, 294.383 251.904 C 293.793 248.334, 293.760 248.313, 289.894 249.019 C 287.752 249.411, 284.087 249.361, 281.750 248.909 C 279.413 248.457, 277.241 248.068, 276.924 248.044 C 276.608 248.020, 275.400 249.012, 274.241 250.250 M 118.044 262.780 C 116.543 268.184, 116.752 277.201, 118.434 279.602 C 119.336 280.889, 122.025 282.133, 125.684 282.953 C 128.883 283.671, 133.975 284.843, 137 285.559 C 140.025 286.274, 144.075 287.089, 146 287.368 C 147.925 287.648, 154.450 288.650, 160.500 289.596 C 177.976 292.327, 223.716 292.028, 243 289.056 C 255.715 287.097, 279.018 282.432, 279.523 281.746 C 280.499 280.417, 281.999 273.957, 281.994 271.101 C 281.987 266.620, 280.154 259.787, 279.129 260.421 C 277.822 261.228, 263.966 264.771, 253.500 266.973 C 215.150 275.043, 167.129 273.702, 133.750 263.629 C 131.137 262.841, 129 262.370, 129 262.583 C 129 262.796, 126.767 262.091, 124.039 261.015 L 119.078 259.060 118.044 262.780 M 202 265.890 C 202 266.458, 200.200 267.408, 198 268 C 195.800 268.592, 194 269.217, 194 269.388 C 194 269.559, 197.375 269.712, 201.500 269.728 C 205.625 269.744, 209 269.361, 209 268.878 C 209 268.395, 208.132 268, 207.071 268 C 206.011 268, 204.436 267.293, 203.571 266.429 C 202.707 265.564, 202 265.322, 202 265.890 M 139 269.740 C 139 269.956, 140.213 271.724, 141.696 273.668 C 143.179 275.613, 144.642 279.070, 144.946 281.352 C 145.429 284.970, 145.851 285.540, 148.250 285.816 C 150.735 286.102, 151 285.829, 151 282.985 C 151 280.863, 152.149 278.434, 154.526 275.533 L 158.052 271.230 155.362 270.555 C 153.180 270.007, 152.257 270.399, 150.481 272.626 L 148.291 275.373 146.600 272.794 C 145.599 271.266, 143.705 270.037, 141.955 269.780 C 140.330 269.542, 139 269.523, 139 269.740 M 254.514 272.406 C 253.824 274.108, 253.029 276.175, 252.746 277 C 252.181 278.652, 252.256 278.771, 250.030 272.687 C 249.150 270.278, 248.533 269.918, 245.751 270.187 L 242.500 270.500 242.211 279.250 C 242.042 284.357, 242.321 288, 242.879 288 C 245.994 288, 247.003 286.590, 247.070 282.143 L 247.139 277.500 248.619 282.314 C 249.673 285.746, 250.555 287.038, 251.692 286.814 C 253.666 286.425, 254.539 284.871, 256.361 278.500 L 257.792 273.500 257.896 279.250 C 257.987 284.299, 258.244 285, 260 285 C 261.819 285, 262 284.333, 262 277.613 L 262 270.227 258.884 269.770 C 256.154 269.369, 255.612 269.696, 254.514 272.406 M 95 273.987 C 95 275.767, 113.009 292.821, 120.528 298.162 C 144.910 315.481, 168.845 322.991, 199.676 322.997 C 222.696 323.001, 237.534 319.820, 257.478 310.606 C 273.304 303.293, 293.345 288.346, 300.166 278.766 L 302.117 276.027 299.059 276.638 C 297.036 277.043, 296 276.852, 296 276.075 C 296 275.277, 294.157 274.996, 290.250 275.200 L 284.500 275.500 284.198 280.190 C 283.853 285.536, 283.697 285.627, 270 288.502 C 240.594 294.672, 234.058 295.324, 201 295.385 C 172.959 295.436, 167.908 295.193, 155 293.167 C 147.025 291.915, 137.715 290.242, 134.312 289.450 C 130.909 288.657, 126.409 287.744, 124.312 287.419 C 118.040 286.450, 115.762 284.845, 114.273 280.347 C 112.966 276.399, 112.677 276.176, 108.451 275.840 C 106.006 275.645, 103.834 275.939, 103.626 276.493 C 103.409 277.071, 101.492 276.578, 99.124 275.333 C 96.856 274.141, 95 273.535, 95 273.987 M 170.237 279.473 C 168.457 283.084, 167 286.479, 167 287.019 C 167 287.559, 168.350 288, 170 288 C 171.650 288, 173 287.494, 173 286.875 C 173 285.611, 179.027 286.466, 179.950 287.861 C 180.563 288.787, 186 290.313, 186 289.560 C 186 289.296, 184.457 285.575, 182.572 281.291 C 179.557 274.440, 178.801 273.464, 176.309 273.204 C 173.721 272.934, 173.192 273.481, 170.237 279.473 M 224 281 L 224 289 227 289 L 230 289 230 281 L 230 273 227 273 L 224 273 224 281 M 200.750 274.718 L 196 275.110 196 282.555 L 196 290 202.277 290 C 211.227 290, 214.790 287.067, 211.158 282.690 C 210.310 281.668, 210.243 280.968, 210.951 280.530 C 211.528 280.174, 211.993 279.346, 211.985 278.691 C 211.940 275.190, 208.743 274.060, 200.750 274.718 M 175.221 280 C 174.465 281.939, 174.573 282.576, 175.701 282.838 C 177.811 283.329, 178.163 282.600, 177.119 279.895 L 176.196 277.500 175.221 280 M 202 279 C 202 279.550, 202.900 280, 204 280 C 205.100 280, 206 279.550, 206 279 C 206 278.450, 205.100 278, 204 278 C 202.900 278, 202 278.450, 202 279 M 202 285.570 C 202 286.612, 202.729 287.032, 204.172 286.820 C 207.373 286.348, 207.716 284, 204.583 284 C 202.903 284, 202 284.549, 202 285.570 M 90.646 288.726 C 90.303 290.802, 90.017 294.910, 90.011 297.856 C 90.002 302.289, 89.483 303.865, 87 307 C 85.350 309.083, 84 311.207, 84 311.720 C 84 312.735, 88.242 317, 89.252 317 C 89.595 317, 91.307 315.007, 93.057 312.570 C 95.821 308.721, 97.270 307.781, 104.119 305.397 C 108.454 303.888, 112 302.312, 112 301.895 C 112 301.478, 110.637 300.166, 108.972 298.980 C 105.886 296.783, 105.415 296.808, 98.665 299.537 C 97.002 300.210, 96.861 299.789, 97.165 295.044 C 97.475 290.192, 97.272 289.630, 94.385 287.380 L 91.270 284.952 90.646 288.726 M 296.631 290.457 L 293.763 292.764 297.913 298.382 C 300.196 301.472, 301.875 304, 301.645 304 C 301.416 304, 297.744 302.830, 293.486 301.400 L 285.745 298.800 283.220 301.326 L 280.694 303.851 286.343 311.676 C 289.450 315.979, 293.007 320.721, 294.246 322.214 L 296.500 324.927 299.379 322.573 L 302.258 320.219 298.189 314.883 C 295.951 311.948, 294.242 309.425, 294.391 309.276 C 294.540 309.126, 297.943 310.120, 301.953 311.484 L 309.243 313.963 312.121 311.914 C 313.705 310.786, 314.994 309.557, 314.987 309.182 C 314.975 308.513, 301.901 290.478, 300.311 288.935 C 299.865 288.503, 298.209 289.188, 296.631 290.457 M 117.032 321.468 C 111.846 326.676, 107.817 331.150, 108.078 331.412 C 108.340 331.673, 109.892 332.586, 111.527 333.439 C 114.242 334.857, 114.607 334.848, 115.728 333.334 C 116.869 331.796, 117.246 331.807, 120.978 333.490 C 124.213 334.949, 125 335.825, 125 337.967 C 125 340.013, 125.791 341.007, 128.415 342.258 C 132.697 344.300, 132.669 344.365, 133.482 330.362 C 133.829 324.388, 134.299 318.576, 134.526 317.448 C 134.817 315.999, 134.094 314.896, 132.065 313.698 C 130.485 312.764, 128.577 312, 127.826 312 C 127.075 312, 122.218 316.261, 117.032 321.468 M 259.218 315.760 C 257.413 316.658, 256.133 317.905, 256.373 318.531 C 256.838 319.742, 258.554 341.302, 258.421 344.250 C 258.324 346.382, 258.133 346.381, 262.540 344.279 C 265.311 342.958, 266.055 342.070, 265.746 340.453 C 265.440 338.852, 266.283 337.806, 269.256 336.095 C 272.881 334.009, 273.301 333.962, 274.961 335.464 C 276.615 336.961, 277.033 336.952, 280.408 335.343 L 284.063 333.599 274.300 323.800 C 268.931 318.410, 264.079 314.029, 263.519 314.064 C 262.958 314.099, 261.023 314.863, 259.218 315.760 M 124.815 323.365 C 122.812 325.875, 122.418 327.018, 123.265 327.865 C 125.510 330.110, 126.799 328.996, 127.157 324.500 C 127.353 322.025, 127.511 320, 127.507 320 C 127.503 320, 126.292 321.514, 124.815 323.365 M 152.453 331.743 C 155.548 340.100, 155.633 340.705, 154.375 345.472 C 152.911 351.024, 153.131 351.480, 157.694 352.332 C 161.138 352.974, 161.200 352.893, 162.522 346 C 162.995 343.534, 165.127 340.530, 169.742 335.828 L 176.292 329.156 171.905 327.974 C 167.545 326.800, 167.499 326.815, 164.403 330.397 C 162.690 332.378, 161.043 334, 160.744 334 C 160.444 334, 159.672 331.800, 159.026 329.110 C 157.998 324.822, 157.478 324.146, 154.802 323.610 C 149.058 322.462, 149.039 322.527, 152.453 331.743 M 263.393 324.582 C 263.727 325.452, 264 327.252, 264 328.582 C 264 331.076, 265.452 331.633, 267.905 330.080 C 269.058 329.350, 268.879 328.645, 266.905 326.151 C 264.310 322.870, 262.411 322.022, 263.393 324.582 M 227.972 327.239 C 226.063 327.708, 223.488 329.221, 222.250 330.601 C 217.044 336.410, 221.170 343, 230.012 343 C 235.478 343, 238.100 344.970, 236 347.500 C 234.303 349.544, 231.389 349.387, 229.807 347.165 C 228.635 345.520, 228.163 345.469, 225.250 346.668 C 221.356 348.271, 221.216 349.307, 224.455 352.545 C 230.820 358.911, 246.559 351.061, 244.431 342.582 C 243.411 338.519, 240.485 336.742, 233.753 336.098 C 229.127 335.656, 227.500 335.110, 227.500 334 C 227.500 333.107, 228.613 332.372, 230.250 332.184 C 231.762 332.010, 233 332.347, 233 332.934 C 233 334.276, 235.094 334.295, 238.545 332.983 C 241.053 332.029, 241.128 331.826, 239.739 329.733 C 237.991 327.099, 232.922 326.025, 227.972 327.239 M 191.539 332.250 C 191.320 332.938, 189.309 338.597, 187.071 344.828 C 184.832 351.058, 183 356.570, 183 357.078 C 183 357.585, 184.769 358, 186.930 358 C 190.245 358, 190.911 357.647, 191.180 355.750 C 191.452 353.840, 192.199 353.455, 196.129 353.200 C 200.367 352.926, 200.812 353.116, 201.398 355.450 C 201.952 357.658, 202.581 358, 206.086 358 C 210.647 358, 210.625 358.223, 206.998 348.500 C 205.972 345.750, 204.142 340.688, 202.932 337.250 L 200.732 331 196.335 331 C 193.696 331, 191.778 331.500, 191.539 332.250 M 195.796 339.579 C 195.503 340.086, 194.958 342.188, 194.586 344.250 C 193.948 347.784, 194.057 348, 196.474 348 C 198.766 348, 198.967 347.709, 198.370 345.250 C 197.231 340.558, 196.351 338.620, 195.796 339.579" stroke="none" fill="#f7f7f7" fill-rule="evenodd"/></svg>